solid OpenSCAD_Model
  facet normal 0 1 0
    outer loop
      vertex 98.465 7 -14.7937
      vertex 91.965 7 -19.1513
      vertex 91.965 7 -14.7937
    endloop
  endfacet
  facet normal 0 1 -0
    outer loop
      vertex 98.465 7 -24.2
      vertex 91.965 7 -19.1513
      vertex 98.465 7 -14.7937
    endloop
  endfacet
  facet normal 0 1 0
    outer loop
      vertex 98.465 7 -24.2
      vertex 87.7501 7 -23.4489
      vertex 88.2499 7 -23.4489
    endloop
  endfacet
  facet normal 0 1 0
    outer loop
      vertex 87.7501 7 -23.4489
      vertex 98.465 7 -24.2
      vertex 81.7499 7 -23.4489
    endloop
  endfacet
  facet normal 0 1 0
    outer loop
      vertex 81.7499 7 -23.4489
      vertex 98.465 7 -24.2
      vertex 81.2501 7 -23.4489
    endloop
  endfacet
  facet normal 0 1 0
    outer loop
      vertex 81.2501 7 -23.4489
      vertex 98.465 7 -24.2
      vertex 75.2499 7 -23.4489
    endloop
  endfacet
  facet normal 0 1 0
    outer loop
      vertex 75.2499 7 -23.4489
      vertex 98.465 7 -24.2
      vertex 74.7501 7 -23.4489
    endloop
  endfacet
  facet normal 0 1 0
    outer loop
      vertex 74.7501 7 -23.4489
      vertex 98.465 7 -24.2
      vertex 68.7499 7 -23.4489
    endloop
  endfacet
  facet normal 0 1 0
    outer loop
      vertex 68.7499 7 -23.4489
      vertex 98.465 7 -24.2
      vertex 68.2501 7 -23.4489
    endloop
  endfacet
  facet normal 0 1 0
    outer loop
      vertex 68.2501 7 -23.4489
      vertex 98.465 7 -24.2
      vertex 62.2499 7 -23.4489
    endloop
  endfacet
  facet normal 0 1 0
    outer loop
      vertex 62.2499 7 -23.4489
      vertex 98.465 7 -24.2
      vertex 61.7501 7 -23.4489
    endloop
  endfacet
  facet normal 0 1 0
    outer loop
      vertex 61.7501 7 -23.4489
      vertex 98.465 7 -24.2
      vertex 55.7499 7 -23.4489
    endloop
  endfacet
  facet normal 0 1 0
    outer loop
      vertex 55.7499 7 -23.4489
      vertex 98.465 7 -24.2
      vertex 55.2501 7 -23.4489
    endloop
  endfacet
  facet normal 0 1 0
    outer loop
      vertex 55.2501 7 -23.4489
      vertex 98.465 7 -24.2
      vertex 49.2499 7 -23.4489
    endloop
  endfacet
  facet normal 0 1 0
    outer loop
      vertex 49.2499 7 -23.4489
      vertex 98.465 7 -24.2
      vertex 48.7501 7 -23.4489
    endloop
  endfacet
  facet normal 0 1 0
    outer loop
      vertex 48.7501 7 -23.4489
      vertex 98.465 7 -24.2
      vertex 42.7499 7 -23.4489
    endloop
  endfacet
  facet normal 0 1 0
    outer loop
      vertex 42.7499 7 -23.4489
      vertex 98.465 7 -24.2
      vertex 42.2501 7 -23.4489
    endloop
  endfacet
  facet normal 0 1 0
    outer loop
      vertex 42.2501 7 -23.4489
      vertex 98.465 7 -24.2
      vertex 36.2499 7 -23.4489
    endloop
  endfacet
  facet normal 0 1 0
    outer loop
      vertex 36.2499 7 -23.4489
      vertex 98.465 7 -24.2
      vertex 35.7501 7 -23.4489
    endloop
  endfacet
  facet normal 0 1 0
    outer loop
      vertex 35.7501 7 -23.4489
      vertex 98.465 7 -24.2
      vertex 29.7499 7 -23.4489
    endloop
  endfacet
  facet normal 0 1 0
    outer loop
      vertex 29.7499 7 -23.4489
      vertex 98.465 7 -24.2
      vertex 29.2501 7 -23.4489
    endloop
  endfacet
  facet normal 0 1 0
    outer loop
      vertex 29.2501 7 -23.4489
      vertex 98.465 7 -24.2
      vertex 23.2499 7 -23.4489
    endloop
  endfacet
  facet normal 0 1 0
    outer loop
      vertex 23.2499 7 -23.4489
      vertex 98.465 7 -24.2
      vertex 22.7501 7 -23.4489
    endloop
  endfacet
  facet normal 0 1 0
    outer loop
      vertex -19.965 7 -24.2
      vertex 22.7501 7 -23.4489
      vertex 98.465 7 -24.2
    endloop
  endfacet
  facet normal 0 1 0
    outer loop
      vertex 22.7501 7 -23.4489
      vertex -19.965 7 -24.2
      vertex 16.7499 7 -23.4489
    endloop
  endfacet
  facet normal 0 1 0
    outer loop
      vertex 16.7499 7 -23.4489
      vertex -19.965 7 -24.2
      vertex 16.2501 7 -23.4489
    endloop
  endfacet
  facet normal 0 1 0
    outer loop
      vertex 16.2501 7 -23.4489
      vertex -19.965 7 -24.2
      vertex 10.2499 7 -23.4489
    endloop
  endfacet
  facet normal 0 1 0
    outer loop
      vertex 10.2499 7 -23.4489
      vertex -19.965 7 -24.2
      vertex 9.75012 7 -23.4489
    endloop
  endfacet
  facet normal 0 1 0
    outer loop
      vertex 9.75012 7 -23.4489
      vertex -19.965 7 -24.2
      vertex 3.74988 7 -23.4489
    endloop
  endfacet
  facet normal 0 1 0
    outer loop
      vertex 3.74988 7 -23.4489
      vertex -19.965 7 -24.2
      vertex 3.25012 7 -23.4489
    endloop
  endfacet
  facet normal 0 1 0
    outer loop
      vertex 3.25012 7 -23.4489
      vertex -19.965 7 -24.2
      vertex -2.75012 7 -23.4489
    endloop
  endfacet
  facet normal 0 1 0
    outer loop
      vertex -2.75012 7 -23.4489
      vertex -19.965 7 -24.2
      vertex -3.24988 7 -23.4489
    endloop
  endfacet
  facet normal 0 1 0
    outer loop
      vertex -3.24988 7 -23.4489
      vertex -19.965 7 -24.2
      vertex -9.25012 7 -23.4489
    endloop
  endfacet
  facet normal 0 1 0
    outer loop
      vertex 91.965 7 -19.1513
      vertex 98.465 7 -24.2
      vertex 88.2499 7 -23.4489
    endloop
  endfacet
  facet normal 0 1 0
    outer loop
      vertex 91.965 7 -19.1513
      vertex 90.7251 7 -18.7937
      vertex 91.7749 7 -18.7937
    endloop
  endfacet
  facet normal 0 1 0
    outer loop
      vertex 90.7251 7 -18.7937
      vertex 91.965 7 -19.1513
      vertex 88.2499 7 -23.4489
    endloop
  endfacet
  facet normal 0 1 0
    outer loop
      vertex 87.7501 7 -23.4489
      vertex 84.2251 7 -18.7937
      vertex 85.2749 7 -18.7937
    endloop
  endfacet
  facet normal 0 1 0
    outer loop
      vertex 84.2251 7 -18.7937
      vertex 87.7501 7 -23.4489
      vertex 81.7499 7 -23.4489
    endloop
  endfacet
  facet normal 0 1 0
    outer loop
      vertex 81.2501 7 -23.4489
      vertex 77.7251 7 -18.7937
      vertex 78.7749 7 -18.7937
    endloop
  endfacet
  facet normal 0 1 0
    outer loop
      vertex 77.7251 7 -18.7937
      vertex 81.2501 7 -23.4489
      vertex 75.2499 7 -23.4489
    endloop
  endfacet
  facet normal 0 1 0
    outer loop
      vertex 74.7501 7 -23.4489
      vertex 71.2251 7 -18.7937
      vertex 72.2749 7 -18.7937
    endloop
  endfacet
  facet normal 0 1 0
    outer loop
      vertex 71.2251 7 -18.7937
      vertex 74.7501 7 -23.4489
      vertex 68.7499 7 -23.4489
    endloop
  endfacet
  facet normal 0 1 0
    outer loop
      vertex 68.2501 7 -23.4489
      vertex 64.7251 7 -18.7937
      vertex 65.7749 7 -18.7937
    endloop
  endfacet
  facet normal 0 1 0
    outer loop
      vertex 64.7251 7 -18.7937
      vertex 68.2501 7 -23.4489
      vertex 62.2499 7 -23.4489
    endloop
  endfacet
  facet normal 0 1 0
    outer loop
      vertex 61.7501 7 -23.4489
      vertex 58.2251 7 -18.7937
      vertex 59.2749 7 -18.7937
    endloop
  endfacet
  facet normal 0 1 0
    outer loop
      vertex 58.2251 7 -18.7937
      vertex 61.7501 7 -23.4489
      vertex 55.7499 7 -23.4489
    endloop
  endfacet
  facet normal 0 1 0
    outer loop
      vertex 55.2501 7 -23.4489
      vertex 51.7251 7 -18.7937
      vertex 52.7749 7 -18.7937
    endloop
  endfacet
  facet normal 0 1 0
    outer loop
      vertex 51.7251 7 -18.7937
      vertex 55.2501 7 -23.4489
      vertex 49.2499 7 -23.4489
    endloop
  endfacet
  facet normal 0 1 0
    outer loop
      vertex 48.7501 7 -23.4489
      vertex 45.2251 7 -18.7937
      vertex 46.2749 7 -18.7937
    endloop
  endfacet
  facet normal 0 1 0
    outer loop
      vertex 45.2251 7 -18.7937
      vertex 48.7501 7 -23.4489
      vertex 42.7499 7 -23.4489
    endloop
  endfacet
  facet normal 0 1 0
    outer loop
      vertex 42.2501 7 -23.4489
      vertex 38.7251 7 -18.7937
      vertex 39.7749 7 -18.7937
    endloop
  endfacet
  facet normal 0 1 0
    outer loop
      vertex 38.7251 7 -18.7937
      vertex 42.2501 7 -23.4489
      vertex 36.2499 7 -23.4489
    endloop
  endfacet
  facet normal 0 1 0
    outer loop
      vertex 35.7501 7 -23.4489
      vertex 32.2251 7 -18.7937
      vertex 33.2749 7 -18.7937
    endloop
  endfacet
  facet normal 0 1 0
    outer loop
      vertex 32.2251 7 -18.7937
      vertex 35.7501 7 -23.4489
      vertex 29.7499 7 -23.4489
    endloop
  endfacet
  facet normal 0 1 0
    outer loop
      vertex 29.2501 7 -23.4489
      vertex 25.7251 7 -18.7937
      vertex 26.7749 7 -18.7937
    endloop
  endfacet
  facet normal 0 1 0
    outer loop
      vertex 25.7251 7 -18.7937
      vertex 29.2501 7 -23.4489
      vertex 23.2499 7 -23.4489
    endloop
  endfacet
  facet normal 0 1 0
    outer loop
      vertex 22.7501 7 -23.4489
      vertex 19.2251 7 -18.7937
      vertex 20.2749 7 -18.7937
    endloop
  endfacet
  facet normal 0 1 0
    outer loop
      vertex 19.2251 7 -18.7937
      vertex 22.7501 7 -23.4489
      vertex 16.7499 7 -23.4489
    endloop
  endfacet
  facet normal 0 1 0
    outer loop
      vertex 16.2501 7 -23.4489
      vertex 12.7251 7 -18.7937
      vertex 13.7749 7 -18.7937
    endloop
  endfacet
  facet normal 0 1 0
    outer loop
      vertex 12.7251 7 -18.7937
      vertex 16.2501 7 -23.4489
      vertex 10.2499 7 -23.4489
    endloop
  endfacet
  facet normal 0 1 0
    outer loop
      vertex 9.75012 7 -23.4489
      vertex 6.22513 7 -18.7937
      vertex 7.27487 7 -18.7937
    endloop
  endfacet
  facet normal 0 1 0
    outer loop
      vertex 6.22513 7 -18.7937
      vertex 9.75012 7 -23.4489
      vertex 3.74988 7 -23.4489
    endloop
  endfacet
  facet normal 0 1 0
    outer loop
      vertex 3.25012 7 -23.4489
      vertex -0.274872 7 -18.7937
      vertex 0.774872 7 -18.7937
    endloop
  endfacet
  facet normal 0 1 0
    outer loop
      vertex -0.274872 7 -18.7937
      vertex 3.25012 7 -23.4489
      vertex -2.75012 7 -23.4489
    endloop
  endfacet
  facet normal 0 1 0
    outer loop
      vertex -3.24988 7 -23.4489
      vertex -6.77487 7 -18.7937
      vertex -5.72513 7 -18.7937
    endloop
  endfacet
  facet normal 0 1 0
    outer loop
      vertex -6.77487 7 -18.7937
      vertex -3.24988 7 -23.4489
      vertex -9.25012 7 -23.4489
    endloop
  endfacet
  facet normal 0 1 0
    outer loop
      vertex -12.2251 7 -18.7937
      vertex -13.465 7 -19.1513
      vertex -13.2749 7 -18.7937
    endloop
  endfacet
  facet normal -0 1 0
    outer loop
      vertex -13.465 7 -19.1513
      vertex -12.2251 7 -18.7937
      vertex -9.74988 7 -23.4489
    endloop
  endfacet
  facet normal 0 1 -0
    outer loop
      vertex -13.465 7 -19.1513
      vertex -19.965 7 -14.7937
      vertex -13.465 7 -14.7937
    endloop
  endfacet
  facet normal 0 1 0
    outer loop
      vertex -19.965 7 -24.2
      vertex -13.465 7 -19.1513
      vertex -9.74988 7 -23.4489
    endloop
  endfacet
  facet normal 0 1 0
    outer loop
      vertex -13.465 7 -19.1513
      vertex -19.965 7 -24.2
      vertex -19.965 7 -14.7937
    endloop
  endfacet
  facet normal 0 1 0
    outer loop
      vertex -9.25012 7 -23.4489
      vertex -19.965 7 -24.2
      vertex -9.74988 7 -23.4489
    endloop
  endfacet
  facet normal 0 1 0
    outer loop
      vertex 98.465 7 -26.7
      vertex 91.965 7 -26.7936
      vertex -19.965 7 -26.7
    endloop
  endfacet
  facet normal 0 1 -0
    outer loop
      vertex 98.465 7 -26.7937
      vertex 91.965 7 -26.7936
      vertex 98.465 7 -26.7
    endloop
  endfacet
  facet normal 0 1 0
    outer loop
      vertex 91.965 7 -26.7936
      vertex 98.465 7 -26.7937
      vertex 91.965 7 -26.7937
    endloop
  endfacet
  facet normal 0 1 -0
    outer loop
      vertex -13.465 7 -26.7936
      vertex -19.965 7 -26.7
      vertex 91.965 7 -26.7936
    endloop
  endfacet
  facet normal 0 1 0
    outer loop
      vertex -19.965 7 -26.7937
      vertex -13.465 7 -26.7936
      vertex -13.465 7 -26.7937
    endloop
  endfacet
  facet normal 0 1 0
    outer loop
      vertex -13.465 7 -26.7936
      vertex -19.965 7 -26.7937
      vertex -19.965 7 -26.7
    endloop
  endfacet
  facet normal 0 -1 0
    outer loop
      vertex -19.965 -7 -14.7937
      vertex -13.465 -7 -19.1513
      vertex -13.465 -7 -14.7937
    endloop
  endfacet
  facet normal 0 -1 0
    outer loop
      vertex -19.965 -7 -24.2
      vertex -13.465 -7 -19.1513
      vertex -19.965 -7 -14.7937
    endloop
  endfacet
  facet normal 0 -1 0
    outer loop
      vertex -19.965 -7 -24.2
      vertex -9.25012 -7 -23.4489
      vertex -9.74988 -7 -23.4489
    endloop
  endfacet
  facet normal 0 -1 -0
    outer loop
      vertex -9.25012 -7 -23.4489
      vertex -19.965 -7 -24.2
      vertex -3.24988 -7 -23.4489
    endloop
  endfacet
  facet normal 0 -1 -0
    outer loop
      vertex -3.24988 -7 -23.4489
      vertex -19.965 -7 -24.2
      vertex -2.75012 -7 -23.4489
    endloop
  endfacet
  facet normal 0 -1 -0
    outer loop
      vertex -2.75012 -7 -23.4489
      vertex -19.965 -7 -24.2
      vertex 3.25012 -7 -23.4489
    endloop
  endfacet
  facet normal 0 -1 -0
    outer loop
      vertex 3.25012 -7 -23.4489
      vertex -19.965 -7 -24.2
      vertex 3.74988 -7 -23.4489
    endloop
  endfacet
  facet normal 0 -1 -0
    outer loop
      vertex 3.74988 -7 -23.4489
      vertex -19.965 -7 -24.2
      vertex 9.75012 -7 -23.4489
    endloop
  endfacet
  facet normal 0 -1 -0
    outer loop
      vertex 9.75012 -7 -23.4489
      vertex -19.965 -7 -24.2
      vertex 10.2499 -7 -23.4489
    endloop
  endfacet
  facet normal 0 -1 -0
    outer loop
      vertex 10.2499 -7 -23.4489
      vertex -19.965 -7 -24.2
      vertex 16.2501 -7 -23.4489
    endloop
  endfacet
  facet normal 0 -1 -0
    outer loop
      vertex 16.2501 -7 -23.4489
      vertex -19.965 -7 -24.2
      vertex 16.7499 -7 -23.4489
    endloop
  endfacet
  facet normal 0 -1 -0
    outer loop
      vertex 16.7499 -7 -23.4489
      vertex -19.965 -7 -24.2
      vertex 22.7501 -7 -23.4489
    endloop
  endfacet
  facet normal 0 -1 -0
    outer loop
      vertex 22.7501 -7 -23.4489
      vertex -19.965 -7 -24.2
      vertex 23.2499 -7 -23.4489
    endloop
  endfacet
  facet normal 0 -1 -0
    outer loop
      vertex 23.2499 -7 -23.4489
      vertex -19.965 -7 -24.2
      vertex 29.2501 -7 -23.4489
    endloop
  endfacet
  facet normal 0 -1 -0
    outer loop
      vertex 29.2501 -7 -23.4489
      vertex -19.965 -7 -24.2
      vertex 29.7499 -7 -23.4489
    endloop
  endfacet
  facet normal 0 -1 -0
    outer loop
      vertex 29.7499 -7 -23.4489
      vertex -19.965 -7 -24.2
      vertex 35.7501 -7 -23.4489
    endloop
  endfacet
  facet normal 0 -1 -0
    outer loop
      vertex 35.7501 -7 -23.4489
      vertex -19.965 -7 -24.2
      vertex 36.2499 -7 -23.4489
    endloop
  endfacet
  facet normal 0 -1 -0
    outer loop
      vertex 36.2499 -7 -23.4489
      vertex -19.965 -7 -24.2
      vertex 42.2501 -7 -23.4489
    endloop
  endfacet
  facet normal 0 -1 -0
    outer loop
      vertex 42.2501 -7 -23.4489
      vertex -19.965 -7 -24.2
      vertex 42.7499 -7 -23.4489
    endloop
  endfacet
  facet normal 0 -1 -0
    outer loop
      vertex 42.7499 -7 -23.4489
      vertex -19.965 -7 -24.2
      vertex 48.7501 -7 -23.4489
    endloop
  endfacet
  facet normal 0 -1 -0
    outer loop
      vertex 48.7501 -7 -23.4489
      vertex -19.965 -7 -24.2
      vertex 49.2499 -7 -23.4489
    endloop
  endfacet
  facet normal 0 -1 -0
    outer loop
      vertex 49.2499 -7 -23.4489
      vertex -19.965 -7 -24.2
      vertex 55.2501 -7 -23.4489
    endloop
  endfacet
  facet normal 0 -1 -0
    outer loop
      vertex 55.2501 -7 -23.4489
      vertex -19.965 -7 -24.2
      vertex 55.7499 -7 -23.4489
    endloop
  endfacet
  facet normal 0 -1 0
    outer loop
      vertex 98.465 -7 -24.2
      vertex 55.7499 -7 -23.4489
      vertex -19.965 -7 -24.2
    endloop
  endfacet
  facet normal 0 -1 0
    outer loop
      vertex 55.7499 -7 -23.4489
      vertex 98.465 -7 -24.2
      vertex 61.7501 -7 -23.4489
    endloop
  endfacet
  facet normal 0 -1 0
    outer loop
      vertex 61.7501 -7 -23.4489
      vertex 98.465 -7 -24.2
      vertex 62.2499 -7 -23.4489
    endloop
  endfacet
  facet normal 0 -1 0
    outer loop
      vertex 62.2499 -7 -23.4489
      vertex 98.465 -7 -24.2
      vertex 68.2501 -7 -23.4489
    endloop
  endfacet
  facet normal 0 -1 0
    outer loop
      vertex 68.2501 -7 -23.4489
      vertex 98.465 -7 -24.2
      vertex 68.7499 -7 -23.4489
    endloop
  endfacet
  facet normal 0 -1 0
    outer loop
      vertex 68.7499 -7 -23.4489
      vertex 98.465 -7 -24.2
      vertex 74.7501 -7 -23.4489
    endloop
  endfacet
  facet normal 0 -1 0
    outer loop
      vertex 74.7501 -7 -23.4489
      vertex 98.465 -7 -24.2
      vertex 75.2499 -7 -23.4489
    endloop
  endfacet
  facet normal 0 -1 0
    outer loop
      vertex 75.2499 -7 -23.4489
      vertex 98.465 -7 -24.2
      vertex 81.2501 -7 -23.4489
    endloop
  endfacet
  facet normal 0 -1 0
    outer loop
      vertex 81.2501 -7 -23.4489
      vertex 98.465 -7 -24.2
      vertex 81.7499 -7 -23.4489
    endloop
  endfacet
  facet normal 0 -1 0
    outer loop
      vertex 81.7499 -7 -23.4489
      vertex 98.465 -7 -24.2
      vertex 87.7501 -7 -23.4489
    endloop
  endfacet
  facet normal 0 -1 -0
    outer loop
      vertex -13.465 -7 -19.1513
      vertex -19.965 -7 -24.2
      vertex -9.74988 -7 -23.4489
    endloop
  endfacet
  facet normal 0 -1 0
    outer loop
      vertex -13.465 -7 -19.1513
      vertex -12.2251 -7 -18.7937
      vertex -13.2749 -7 -18.7937
    endloop
  endfacet
  facet normal 0 -1 -0
    outer loop
      vertex -12.2251 -7 -18.7937
      vertex -13.465 -7 -19.1513
      vertex -9.74988 -7 -23.4489
    endloop
  endfacet
  facet normal 0 -1 0
    outer loop
      vertex -9.25012 -7 -23.4489
      vertex -5.72513 -7 -18.7937
      vertex -6.77487 -7 -18.7937
    endloop
  endfacet
  facet normal 0 -1 -0
    outer loop
      vertex -5.72513 -7 -18.7937
      vertex -9.25012 -7 -23.4489
      vertex -3.24988 -7 -23.4489
    endloop
  endfacet
  facet normal 0 -1 0
    outer loop
      vertex -2.75012 -7 -23.4489
      vertex 0.774872 -7 -18.7937
      vertex -0.274872 -7 -18.7937
    endloop
  endfacet
  facet normal 0 -1 -0
    outer loop
      vertex 0.774872 -7 -18.7937
      vertex -2.75012 -7 -23.4489
      vertex 3.25012 -7 -23.4489
    endloop
  endfacet
  facet normal 0 -1 0
    outer loop
      vertex 3.74988 -7 -23.4489
      vertex 7.27487 -7 -18.7937
      vertex 6.22513 -7 -18.7937
    endloop
  endfacet
  facet normal 0 -1 -0
    outer loop
      vertex 7.27487 -7 -18.7937
      vertex 3.74988 -7 -23.4489
      vertex 9.75012 -7 -23.4489
    endloop
  endfacet
  facet normal 0 -1 0
    outer loop
      vertex 10.2499 -7 -23.4489
      vertex 13.7749 -7 -18.7937
      vertex 12.7251 -7 -18.7937
    endloop
  endfacet
  facet normal 0 -1 -0
    outer loop
      vertex 13.7749 -7 -18.7937
      vertex 10.2499 -7 -23.4489
      vertex 16.2501 -7 -23.4489
    endloop
  endfacet
  facet normal 0 -1 0
    outer loop
      vertex 16.7499 -7 -23.4489
      vertex 20.2749 -7 -18.7937
      vertex 19.2251 -7 -18.7937
    endloop
  endfacet
  facet normal 0 -1 -0
    outer loop
      vertex 20.2749 -7 -18.7937
      vertex 16.7499 -7 -23.4489
      vertex 22.7501 -7 -23.4489
    endloop
  endfacet
  facet normal 0 -1 0
    outer loop
      vertex 23.2499 -7 -23.4489
      vertex 26.7749 -7 -18.7937
      vertex 25.7251 -7 -18.7937
    endloop
  endfacet
  facet normal 0 -1 -0
    outer loop
      vertex 26.7749 -7 -18.7937
      vertex 23.2499 -7 -23.4489
      vertex 29.2501 -7 -23.4489
    endloop
  endfacet
  facet normal 0 -1 0
    outer loop
      vertex 29.7499 -7 -23.4489
      vertex 33.2749 -7 -18.7937
      vertex 32.2251 -7 -18.7937
    endloop
  endfacet
  facet normal 0 -1 -0
    outer loop
      vertex 33.2749 -7 -18.7937
      vertex 29.7499 -7 -23.4489
      vertex 35.7501 -7 -23.4489
    endloop
  endfacet
  facet normal 0 -1 0
    outer loop
      vertex 36.2499 -7 -23.4489
      vertex 39.7749 -7 -18.7937
      vertex 38.7251 -7 -18.7937
    endloop
  endfacet
  facet normal 0 -1 -0
    outer loop
      vertex 39.7749 -7 -18.7937
      vertex 36.2499 -7 -23.4489
      vertex 42.2501 -7 -23.4489
    endloop
  endfacet
  facet normal 0 -1 0
    outer loop
      vertex 42.7499 -7 -23.4489
      vertex 46.2749 -7 -18.7937
      vertex 45.2251 -7 -18.7937
    endloop
  endfacet
  facet normal 0 -1 -0
    outer loop
      vertex 46.2749 -7 -18.7937
      vertex 42.7499 -7 -23.4489
      vertex 48.7501 -7 -23.4489
    endloop
  endfacet
  facet normal 0 -1 0
    outer loop
      vertex 49.2499 -7 -23.4489
      vertex 52.7749 -7 -18.7937
      vertex 51.7251 -7 -18.7937
    endloop
  endfacet
  facet normal 0 -1 -0
    outer loop
      vertex 52.7749 -7 -18.7937
      vertex 49.2499 -7 -23.4489
      vertex 55.2501 -7 -23.4489
    endloop
  endfacet
  facet normal 0 -1 0
    outer loop
      vertex 55.7499 -7 -23.4489
      vertex 59.2749 -7 -18.7937
      vertex 58.2251 -7 -18.7937
    endloop
  endfacet
  facet normal 0 -1 -0
    outer loop
      vertex 59.2749 -7 -18.7937
      vertex 55.7499 -7 -23.4489
      vertex 61.7501 -7 -23.4489
    endloop
  endfacet
  facet normal 0 -1 0
    outer loop
      vertex 62.2499 -7 -23.4489
      vertex 65.7749 -7 -18.7937
      vertex 64.7251 -7 -18.7937
    endloop
  endfacet
  facet normal 0 -1 -0
    outer loop
      vertex 65.7749 -7 -18.7937
      vertex 62.2499 -7 -23.4489
      vertex 68.2501 -7 -23.4489
    endloop
  endfacet
  facet normal 0 -1 0
    outer loop
      vertex 68.7499 -7 -23.4489
      vertex 72.2749 -7 -18.7937
      vertex 71.2251 -7 -18.7937
    endloop
  endfacet
  facet normal 0 -1 -0
    outer loop
      vertex 72.2749 -7 -18.7937
      vertex 68.7499 -7 -23.4489
      vertex 74.7501 -7 -23.4489
    endloop
  endfacet
  facet normal 0 -1 0
    outer loop
      vertex 75.2499 -7 -23.4489
      vertex 78.7749 -7 -18.7937
      vertex 77.7251 -7 -18.7937
    endloop
  endfacet
  facet normal 0 -1 -0
    outer loop
      vertex 78.7749 -7 -18.7937
      vertex 75.2499 -7 -23.4489
      vertex 81.2501 -7 -23.4489
    endloop
  endfacet
  facet normal 0 -1 0
    outer loop
      vertex 81.7499 -7 -23.4489
      vertex 85.2749 -7 -18.7937
      vertex 84.2251 -7 -18.7937
    endloop
  endfacet
  facet normal 0 -1 -0
    outer loop
      vertex 85.2749 -7 -18.7937
      vertex 81.7499 -7 -23.4489
      vertex 87.7501 -7 -23.4489
    endloop
  endfacet
  facet normal 0 -1 0
    outer loop
      vertex 90.7251 -7 -18.7937
      vertex 91.965 -7 -19.1513
      vertex 91.7749 -7 -18.7937
    endloop
  endfacet
  facet normal -0 -1 0
    outer loop
      vertex 91.965 -7 -19.1513
      vertex 90.7251 -7 -18.7937
      vertex 88.2499 -7 -23.4489
    endloop
  endfacet
  facet normal 0 -1 0
    outer loop
      vertex 91.965 -7 -19.1513
      vertex 98.465 -7 -14.7937
      vertex 91.965 -7 -14.7937
    endloop
  endfacet
  facet normal 0 -1 0
    outer loop
      vertex 98.465 -7 -24.2
      vertex 91.965 -7 -19.1513
      vertex 88.2499 -7 -23.4489
    endloop
  endfacet
  facet normal 0 -1 0
    outer loop
      vertex 91.965 -7 -19.1513
      vertex 98.465 -7 -24.2
      vertex 98.465 -7 -14.7937
    endloop
  endfacet
  facet normal 0 -1 0
    outer loop
      vertex 87.7501 -7 -23.4489
      vertex 98.465 -7 -24.2
      vertex 88.2499 -7 -23.4489
    endloop
  endfacet
  facet normal 0 -1 0
    outer loop
      vertex -19.965 -7 -26.7
      vertex -13.465 -7 -26.7936
      vertex 98.465 -7 -26.7
    endloop
  endfacet
  facet normal 0 -1 0
    outer loop
      vertex -19.965 -7 -26.7937
      vertex -13.465 -7 -26.7936
      vertex -19.965 -7 -26.7
    endloop
  endfacet
  facet normal 0 -1 -0
    outer loop
      vertex -13.465 -7 -26.7936
      vertex -19.965 -7 -26.7937
      vertex -13.465 -7 -26.7937
    endloop
  endfacet
  facet normal 0 -1 0
    outer loop
      vertex 91.965 -7 -26.7936
      vertex 98.465 -7 -26.7
      vertex -13.465 -7 -26.7936
    endloop
  endfacet
  facet normal 0 -1 0
    outer loop
      vertex 98.465 -7 -26.7937
      vertex 91.965 -7 -26.7936
      vertex 91.965 -7 -26.7937
    endloop
  endfacet
  facet normal 0 -1 0
    outer loop
      vertex 91.965 -7 -26.7936
      vertex 98.465 -7 -26.7937
      vertex 98.465 -7 -26.7
    endloop
  endfacet
  facet normal -0 0 1
    outer loop
      vertex -9.74988 7 -23.4489
      vertex -9.25012 -7 -23.4489
      vertex -9.25012 7 -23.4489
    endloop
  endfacet
  facet normal 0 0 1
    outer loop
      vertex -9.25012 -7 -23.4489
      vertex -9.74988 7 -23.4489
      vertex -9.74988 -7 -23.4489
    endloop
  endfacet
  facet normal 0.882947 -0 0.469474
    outer loop
      vertex -12.2251 -7 -18.7937
      vertex -9.74988 7 -23.4489
      vertex -12.2251 7 -18.7937
    endloop
  endfacet
  facet normal 0.882947 0 0.469474
    outer loop
      vertex -9.74988 7 -23.4489
      vertex -12.2251 -7 -18.7937
      vertex -9.74988 -7 -23.4489
    endloop
  endfacet
  facet normal -0 0 1
    outer loop
      vertex -13.2749 7 -18.7937
      vertex -12.2251 -7 -18.7937
      vertex -12.2251 7 -18.7937
    endloop
  endfacet
  facet normal 0 0 1
    outer loop
      vertex -12.2251 -7 -18.7937
      vertex -13.2749 7 -18.7937
      vertex -13.2749 -7 -18.7937
    endloop
  endfacet
  facet normal -0.882946 0 0.469475
    outer loop
      vertex -13.465 -7 -19.1513
      vertex -13.2749 7 -18.7937
      vertex -13.465 7 -19.1513
    endloop
  endfacet
  facet normal -0.882946 0 0.469475
    outer loop
      vertex -13.2749 7 -18.7937
      vertex -13.465 -7 -19.1513
      vertex -13.2749 -7 -18.7937
    endloop
  endfacet
  facet normal 0 0 -1
    outer loop
      vertex -13.465 -7 -26.7936
      vertex 91.965 7 -26.7936
      vertex 91.965 -7 -26.7936
    endloop
  endfacet
  facet normal -0 0 -1
    outer loop
      vertex 91.965 7 -26.7936
      vertex -13.465 -7 -26.7936
      vertex -13.465 7 -26.7936
    endloop
  endfacet
  facet normal -0 0 1
    outer loop
      vertex -3.24988 7 -23.4489
      vertex -2.75012 -7 -23.4489
      vertex -2.75012 7 -23.4489
    endloop
  endfacet
  facet normal 0 0 1
    outer loop
      vertex -2.75012 -7 -23.4489
      vertex -3.24988 7 -23.4489
      vertex -3.24988 -7 -23.4489
    endloop
  endfacet
  facet normal 0.882947 -0 0.469474
    outer loop
      vertex -5.72513 -7 -18.7937
      vertex -3.24988 7 -23.4489
      vertex -5.72513 7 -18.7937
    endloop
  endfacet
  facet normal 0.882947 0 0.469474
    outer loop
      vertex -3.24988 7 -23.4489
      vertex -5.72513 -7 -18.7937
      vertex -3.24988 -7 -23.4489
    endloop
  endfacet
  facet normal -0 0 1
    outer loop
      vertex -6.77487 7 -18.7937
      vertex -5.72513 -7 -18.7937
      vertex -5.72513 7 -18.7937
    endloop
  endfacet
  facet normal 0 0 1
    outer loop
      vertex -5.72513 -7 -18.7937
      vertex -6.77487 7 -18.7937
      vertex -6.77487 -7 -18.7937
    endloop
  endfacet
  facet normal -0.882947 0 0.469474
    outer loop
      vertex -9.25012 -7 -23.4489
      vertex -6.77487 7 -18.7937
      vertex -9.25012 7 -23.4489
    endloop
  endfacet
  facet normal -0.882947 0 0.469474
    outer loop
      vertex -6.77487 7 -18.7937
      vertex -9.25012 -7 -23.4489
      vertex -6.77487 -7 -18.7937
    endloop
  endfacet
  facet normal -0 0 1
    outer loop
      vertex 3.25012 7 -23.4489
      vertex 3.74988 -7 -23.4489
      vertex 3.74988 7 -23.4489
    endloop
  endfacet
  facet normal 0 0 1
    outer loop
      vertex 3.74988 -7 -23.4489
      vertex 3.25012 7 -23.4489
      vertex 3.25012 -7 -23.4489
    endloop
  endfacet
  facet normal 0.882947 -0 0.469474
    outer loop
      vertex 0.774872 -7 -18.7937
      vertex 3.25012 7 -23.4489
      vertex 0.774872 7 -18.7937
    endloop
  endfacet
  facet normal 0.882947 0 0.469474
    outer loop
      vertex 3.25012 7 -23.4489
      vertex 0.774872 -7 -18.7937
      vertex 3.25012 -7 -23.4489
    endloop
  endfacet
  facet normal -0 0 1
    outer loop
      vertex -0.274872 7 -18.7937
      vertex 0.774872 -7 -18.7937
      vertex 0.774872 7 -18.7937
    endloop
  endfacet
  facet normal 0 0 1
    outer loop
      vertex 0.774872 -7 -18.7937
      vertex -0.274872 7 -18.7937
      vertex -0.274872 -7 -18.7937
    endloop
  endfacet
  facet normal -0.882947 0 0.469474
    outer loop
      vertex -2.75012 -7 -23.4489
      vertex -0.274872 7 -18.7937
      vertex -2.75012 7 -23.4489
    endloop
  endfacet
  facet normal -0.882947 0 0.469474
    outer loop
      vertex -0.274872 7 -18.7937
      vertex -2.75012 -7 -23.4489
      vertex -0.274872 -7 -18.7937
    endloop
  endfacet
  facet normal -0 0 1
    outer loop
      vertex 9.75012 7 -23.4489
      vertex 10.2499 -7 -23.4489
      vertex 10.2499 7 -23.4489
    endloop
  endfacet
  facet normal 0 0 1
    outer loop
      vertex 10.2499 -7 -23.4489
      vertex 9.75012 7 -23.4489
      vertex 9.75012 -7 -23.4489
    endloop
  endfacet
  facet normal 0.882947 -0 0.469474
    outer loop
      vertex 7.27487 -7 -18.7937
      vertex 9.75012 7 -23.4489
      vertex 7.27487 7 -18.7937
    endloop
  endfacet
  facet normal 0.882947 0 0.469474
    outer loop
      vertex 9.75012 7 -23.4489
      vertex 7.27487 -7 -18.7937
      vertex 9.75012 -7 -23.4489
    endloop
  endfacet
  facet normal -0 0 1
    outer loop
      vertex 6.22513 7 -18.7937
      vertex 7.27487 -7 -18.7937
      vertex 7.27487 7 -18.7937
    endloop
  endfacet
  facet normal 0 0 1
    outer loop
      vertex 7.27487 -7 -18.7937
      vertex 6.22513 7 -18.7937
      vertex 6.22513 -7 -18.7937
    endloop
  endfacet
  facet normal -0.882947 0 0.469474
    outer loop
      vertex 3.74988 -7 -23.4489
      vertex 6.22513 7 -18.7937
      vertex 3.74988 7 -23.4489
    endloop
  endfacet
  facet normal -0.882947 0 0.469474
    outer loop
      vertex 6.22513 7 -18.7937
      vertex 3.74988 -7 -23.4489
      vertex 6.22513 -7 -18.7937
    endloop
  endfacet
  facet normal -0 0 1
    outer loop
      vertex 16.2501 7 -23.4489
      vertex 16.7499 -7 -23.4489
      vertex 16.7499 7 -23.4489
    endloop
  endfacet
  facet normal 0 0 1
    outer loop
      vertex 16.7499 -7 -23.4489
      vertex 16.2501 7 -23.4489
      vertex 16.2501 -7 -23.4489
    endloop
  endfacet
  facet normal 0.882947 -0 0.469474
    outer loop
      vertex 13.7749 -7 -18.7937
      vertex 16.2501 7 -23.4489
      vertex 13.7749 7 -18.7937
    endloop
  endfacet
  facet normal 0.882947 0 0.469474
    outer loop
      vertex 16.2501 7 -23.4489
      vertex 13.7749 -7 -18.7937
      vertex 16.2501 -7 -23.4489
    endloop
  endfacet
  facet normal -0 0 1
    outer loop
      vertex 12.7251 7 -18.7937
      vertex 13.7749 -7 -18.7937
      vertex 13.7749 7 -18.7937
    endloop
  endfacet
  facet normal 0 0 1
    outer loop
      vertex 13.7749 -7 -18.7937
      vertex 12.7251 7 -18.7937
      vertex 12.7251 -7 -18.7937
    endloop
  endfacet
  facet normal -0.882947 0 0.469474
    outer loop
      vertex 10.2499 -7 -23.4489
      vertex 12.7251 7 -18.7937
      vertex 10.2499 7 -23.4489
    endloop
  endfacet
  facet normal -0.882947 0 0.469474
    outer loop
      vertex 12.7251 7 -18.7937
      vertex 10.2499 -7 -23.4489
      vertex 12.7251 -7 -18.7937
    endloop
  endfacet
  facet normal -0 0 1
    outer loop
      vertex 22.7501 7 -23.4489
      vertex 23.2499 -7 -23.4489
      vertex 23.2499 7 -23.4489
    endloop
  endfacet
  facet normal 0 0 1
    outer loop
      vertex 23.2499 -7 -23.4489
      vertex 22.7501 7 -23.4489
      vertex 22.7501 -7 -23.4489
    endloop
  endfacet
  facet normal 0.882947 -0 0.469474
    outer loop
      vertex 20.2749 -7 -18.7937
      vertex 22.7501 7 -23.4489
      vertex 20.2749 7 -18.7937
    endloop
  endfacet
  facet normal 0.882947 0 0.469474
    outer loop
      vertex 22.7501 7 -23.4489
      vertex 20.2749 -7 -18.7937
      vertex 22.7501 -7 -23.4489
    endloop
  endfacet
  facet normal -0 0 1
    outer loop
      vertex 19.2251 7 -18.7937
      vertex 20.2749 -7 -18.7937
      vertex 20.2749 7 -18.7937
    endloop
  endfacet
  facet normal 0 0 1
    outer loop
      vertex 20.2749 -7 -18.7937
      vertex 19.2251 7 -18.7937
      vertex 19.2251 -7 -18.7937
    endloop
  endfacet
  facet normal -0.882947 0 0.469474
    outer loop
      vertex 16.7499 -7 -23.4489
      vertex 19.2251 7 -18.7937
      vertex 16.7499 7 -23.4489
    endloop
  endfacet
  facet normal -0.882947 0 0.469474
    outer loop
      vertex 19.2251 7 -18.7937
      vertex 16.7499 -7 -23.4489
      vertex 19.2251 -7 -18.7937
    endloop
  endfacet
  facet normal -0 0 1
    outer loop
      vertex 29.2501 7 -23.4489
      vertex 29.7499 -7 -23.4489
      vertex 29.7499 7 -23.4489
    endloop
  endfacet
  facet normal 0 0 1
    outer loop
      vertex 29.7499 -7 -23.4489
      vertex 29.2501 7 -23.4489
      vertex 29.2501 -7 -23.4489
    endloop
  endfacet
  facet normal 0.882947 -0 0.469474
    outer loop
      vertex 26.7749 -7 -18.7937
      vertex 29.2501 7 -23.4489
      vertex 26.7749 7 -18.7937
    endloop
  endfacet
  facet normal 0.882947 0 0.469474
    outer loop
      vertex 29.2501 7 -23.4489
      vertex 26.7749 -7 -18.7937
      vertex 29.2501 -7 -23.4489
    endloop
  endfacet
  facet normal -0 0 1
    outer loop
      vertex 25.7251 7 -18.7937
      vertex 26.7749 -7 -18.7937
      vertex 26.7749 7 -18.7937
    endloop
  endfacet
  facet normal 0 0 1
    outer loop
      vertex 26.7749 -7 -18.7937
      vertex 25.7251 7 -18.7937
      vertex 25.7251 -7 -18.7937
    endloop
  endfacet
  facet normal -0.882947 0 0.469474
    outer loop
      vertex 23.2499 -7 -23.4489
      vertex 25.7251 7 -18.7937
      vertex 23.2499 7 -23.4489
    endloop
  endfacet
  facet normal -0.882947 0 0.469474
    outer loop
      vertex 25.7251 7 -18.7937
      vertex 23.2499 -7 -23.4489
      vertex 25.7251 -7 -18.7937
    endloop
  endfacet
  facet normal -0 0 1
    outer loop
      vertex 35.7501 7 -23.4489
      vertex 36.2499 -7 -23.4489
      vertex 36.2499 7 -23.4489
    endloop
  endfacet
  facet normal 0 0 1
    outer loop
      vertex 36.2499 -7 -23.4489
      vertex 35.7501 7 -23.4489
      vertex 35.7501 -7 -23.4489
    endloop
  endfacet
  facet normal 0.882947 -0 0.469474
    outer loop
      vertex 33.2749 -7 -18.7937
      vertex 35.7501 7 -23.4489
      vertex 33.2749 7 -18.7937
    endloop
  endfacet
  facet normal 0.882947 0 0.469474
    outer loop
      vertex 35.7501 7 -23.4489
      vertex 33.2749 -7 -18.7937
      vertex 35.7501 -7 -23.4489
    endloop
  endfacet
  facet normal -0 0 1
    outer loop
      vertex 32.2251 7 -18.7937
      vertex 33.2749 -7 -18.7937
      vertex 33.2749 7 -18.7937
    endloop
  endfacet
  facet normal 0 0 1
    outer loop
      vertex 33.2749 -7 -18.7937
      vertex 32.2251 7 -18.7937
      vertex 32.2251 -7 -18.7937
    endloop
  endfacet
  facet normal -0.882947 0 0.469474
    outer loop
      vertex 29.7499 -7 -23.4489
      vertex 32.2251 7 -18.7937
      vertex 29.7499 7 -23.4489
    endloop
  endfacet
  facet normal -0.882947 0 0.469474
    outer loop
      vertex 32.2251 7 -18.7937
      vertex 29.7499 -7 -23.4489
      vertex 32.2251 -7 -18.7937
    endloop
  endfacet
  facet normal -0 0 1
    outer loop
      vertex 42.2501 7 -23.4489
      vertex 42.7499 -7 -23.4489
      vertex 42.7499 7 -23.4489
    endloop
  endfacet
  facet normal 0 0 1
    outer loop
      vertex 42.7499 -7 -23.4489
      vertex 42.2501 7 -23.4489
      vertex 42.2501 -7 -23.4489
    endloop
  endfacet
  facet normal 0.882947 -0 0.469474
    outer loop
      vertex 39.7749 -7 -18.7937
      vertex 42.2501 7 -23.4489
      vertex 39.7749 7 -18.7937
    endloop
  endfacet
  facet normal 0.882947 0 0.469474
    outer loop
      vertex 42.2501 7 -23.4489
      vertex 39.7749 -7 -18.7937
      vertex 42.2501 -7 -23.4489
    endloop
  endfacet
  facet normal -0 0 1
    outer loop
      vertex 38.7251 7 -18.7937
      vertex 39.7749 -7 -18.7937
      vertex 39.7749 7 -18.7937
    endloop
  endfacet
  facet normal 0 0 1
    outer loop
      vertex 39.7749 -7 -18.7937
      vertex 38.7251 7 -18.7937
      vertex 38.7251 -7 -18.7937
    endloop
  endfacet
  facet normal -0.882947 0 0.469474
    outer loop
      vertex 36.2499 -7 -23.4489
      vertex 38.7251 7 -18.7937
      vertex 36.2499 7 -23.4489
    endloop
  endfacet
  facet normal -0.882947 0 0.469474
    outer loop
      vertex 38.7251 7 -18.7937
      vertex 36.2499 -7 -23.4489
      vertex 38.7251 -7 -18.7937
    endloop
  endfacet
  facet normal -0 0 1
    outer loop
      vertex 48.7501 7 -23.4489
      vertex 49.2499 -7 -23.4489
      vertex 49.2499 7 -23.4489
    endloop
  endfacet
  facet normal 0 0 1
    outer loop
      vertex 49.2499 -7 -23.4489
      vertex 48.7501 7 -23.4489
      vertex 48.7501 -7 -23.4489
    endloop
  endfacet
  facet normal 0.882947 -0 0.469474
    outer loop
      vertex 46.2749 -7 -18.7937
      vertex 48.7501 7 -23.4489
      vertex 46.2749 7 -18.7937
    endloop
  endfacet
  facet normal 0.882947 0 0.469474
    outer loop
      vertex 48.7501 7 -23.4489
      vertex 46.2749 -7 -18.7937
      vertex 48.7501 -7 -23.4489
    endloop
  endfacet
  facet normal -0 0 1
    outer loop
      vertex 45.2251 7 -18.7937
      vertex 46.2749 -7 -18.7937
      vertex 46.2749 7 -18.7937
    endloop
  endfacet
  facet normal 0 0 1
    outer loop
      vertex 46.2749 -7 -18.7937
      vertex 45.2251 7 -18.7937
      vertex 45.2251 -7 -18.7937
    endloop
  endfacet
  facet normal -0.882947 0 0.469474
    outer loop
      vertex 42.7499 -7 -23.4489
      vertex 45.2251 7 -18.7937
      vertex 42.7499 7 -23.4489
    endloop
  endfacet
  facet normal -0.882947 0 0.469474
    outer loop
      vertex 45.2251 7 -18.7937
      vertex 42.7499 -7 -23.4489
      vertex 45.2251 -7 -18.7937
    endloop
  endfacet
  facet normal -0 0 1
    outer loop
      vertex 55.2501 7 -23.4489
      vertex 55.7499 -7 -23.4489
      vertex 55.7499 7 -23.4489
    endloop
  endfacet
  facet normal 0 0 1
    outer loop
      vertex 55.7499 -7 -23.4489
      vertex 55.2501 7 -23.4489
      vertex 55.2501 -7 -23.4489
    endloop
  endfacet
  facet normal 0.882947 -0 0.469474
    outer loop
      vertex 52.7749 -7 -18.7937
      vertex 55.2501 7 -23.4489
      vertex 52.7749 7 -18.7937
    endloop
  endfacet
  facet normal 0.882947 0 0.469474
    outer loop
      vertex 55.2501 7 -23.4489
      vertex 52.7749 -7 -18.7937
      vertex 55.2501 -7 -23.4489
    endloop
  endfacet
  facet normal -0 0 1
    outer loop
      vertex 51.7251 7 -18.7937
      vertex 52.7749 -7 -18.7937
      vertex 52.7749 7 -18.7937
    endloop
  endfacet
  facet normal 0 0 1
    outer loop
      vertex 52.7749 -7 -18.7937
      vertex 51.7251 7 -18.7937
      vertex 51.7251 -7 -18.7937
    endloop
  endfacet
  facet normal -0.882947 0 0.469474
    outer loop
      vertex 49.2499 -7 -23.4489
      vertex 51.7251 7 -18.7937
      vertex 49.2499 7 -23.4489
    endloop
  endfacet
  facet normal -0.882947 0 0.469474
    outer loop
      vertex 51.7251 7 -18.7937
      vertex 49.2499 -7 -23.4489
      vertex 51.7251 -7 -18.7937
    endloop
  endfacet
  facet normal -0 0 1
    outer loop
      vertex 61.7501 7 -23.4489
      vertex 62.2499 -7 -23.4489
      vertex 62.2499 7 -23.4489
    endloop
  endfacet
  facet normal 0 0 1
    outer loop
      vertex 62.2499 -7 -23.4489
      vertex 61.7501 7 -23.4489
      vertex 61.7501 -7 -23.4489
    endloop
  endfacet
  facet normal 0.882947 -0 0.469474
    outer loop
      vertex 59.2749 -7 -18.7937
      vertex 61.7501 7 -23.4489
      vertex 59.2749 7 -18.7937
    endloop
  endfacet
  facet normal 0.882947 0 0.469474
    outer loop
      vertex 61.7501 7 -23.4489
      vertex 59.2749 -7 -18.7937
      vertex 61.7501 -7 -23.4489
    endloop
  endfacet
  facet normal -0 0 1
    outer loop
      vertex 58.2251 7 -18.7937
      vertex 59.2749 -7 -18.7937
      vertex 59.2749 7 -18.7937
    endloop
  endfacet
  facet normal 0 0 1
    outer loop
      vertex 59.2749 -7 -18.7937
      vertex 58.2251 7 -18.7937
      vertex 58.2251 -7 -18.7937
    endloop
  endfacet
  facet normal -0.882947 0 0.469474
    outer loop
      vertex 55.7499 -7 -23.4489
      vertex 58.2251 7 -18.7937
      vertex 55.7499 7 -23.4489
    endloop
  endfacet
  facet normal -0.882947 0 0.469474
    outer loop
      vertex 58.2251 7 -18.7937
      vertex 55.7499 -7 -23.4489
      vertex 58.2251 -7 -18.7937
    endloop
  endfacet
  facet normal -0 0 1
    outer loop
      vertex 68.2501 7 -23.4489
      vertex 68.7499 -7 -23.4489
      vertex 68.7499 7 -23.4489
    endloop
  endfacet
  facet normal 0 0 1
    outer loop
      vertex 68.7499 -7 -23.4489
      vertex 68.2501 7 -23.4489
      vertex 68.2501 -7 -23.4489
    endloop
  endfacet
  facet normal 0.882947 -0 0.469474
    outer loop
      vertex 65.7749 -7 -18.7937
      vertex 68.2501 7 -23.4489
      vertex 65.7749 7 -18.7937
    endloop
  endfacet
  facet normal 0.882947 0 0.469474
    outer loop
      vertex 68.2501 7 -23.4489
      vertex 65.7749 -7 -18.7937
      vertex 68.2501 -7 -23.4489
    endloop
  endfacet
  facet normal -0 0 1
    outer loop
      vertex 64.7251 7 -18.7937
      vertex 65.7749 -7 -18.7937
      vertex 65.7749 7 -18.7937
    endloop
  endfacet
  facet normal 0 0 1
    outer loop
      vertex 65.7749 -7 -18.7937
      vertex 64.7251 7 -18.7937
      vertex 64.7251 -7 -18.7937
    endloop
  endfacet
  facet normal -0.882947 0 0.469474
    outer loop
      vertex 62.2499 -7 -23.4489
      vertex 64.7251 7 -18.7937
      vertex 62.2499 7 -23.4489
    endloop
  endfacet
  facet normal -0.882947 0 0.469474
    outer loop
      vertex 64.7251 7 -18.7937
      vertex 62.2499 -7 -23.4489
      vertex 64.7251 -7 -18.7937
    endloop
  endfacet
  facet normal -0 0 1
    outer loop
      vertex 74.7501 7 -23.4489
      vertex 75.2499 -7 -23.4489
      vertex 75.2499 7 -23.4489
    endloop
  endfacet
  facet normal 0 0 1
    outer loop
      vertex 75.2499 -7 -23.4489
      vertex 74.7501 7 -23.4489
      vertex 74.7501 -7 -23.4489
    endloop
  endfacet
  facet normal 0.882947 -0 0.469474
    outer loop
      vertex 72.2749 -7 -18.7937
      vertex 74.7501 7 -23.4489
      vertex 72.2749 7 -18.7937
    endloop
  endfacet
  facet normal 0.882947 0 0.469474
    outer loop
      vertex 74.7501 7 -23.4489
      vertex 72.2749 -7 -18.7937
      vertex 74.7501 -7 -23.4489
    endloop
  endfacet
  facet normal -0 0 1
    outer loop
      vertex 71.2251 7 -18.7937
      vertex 72.2749 -7 -18.7937
      vertex 72.2749 7 -18.7937
    endloop
  endfacet
  facet normal 0 0 1
    outer loop
      vertex 72.2749 -7 -18.7937
      vertex 71.2251 7 -18.7937
      vertex 71.2251 -7 -18.7937
    endloop
  endfacet
  facet normal -0.882947 0 0.469474
    outer loop
      vertex 68.7499 -7 -23.4489
      vertex 71.2251 7 -18.7937
      vertex 68.7499 7 -23.4489
    endloop
  endfacet
  facet normal -0.882947 0 0.469474
    outer loop
      vertex 71.2251 7 -18.7937
      vertex 68.7499 -7 -23.4489
      vertex 71.2251 -7 -18.7937
    endloop
  endfacet
  facet normal -0 0 1
    outer loop
      vertex 81.2501 7 -23.4489
      vertex 81.7499 -7 -23.4489
      vertex 81.7499 7 -23.4489
    endloop
  endfacet
  facet normal 0 0 1
    outer loop
      vertex 81.7499 -7 -23.4489
      vertex 81.2501 7 -23.4489
      vertex 81.2501 -7 -23.4489
    endloop
  endfacet
  facet normal 0.882947 -0 0.469474
    outer loop
      vertex 78.7749 -7 -18.7937
      vertex 81.2501 7 -23.4489
      vertex 78.7749 7 -18.7937
    endloop
  endfacet
  facet normal 0.882947 0 0.469474
    outer loop
      vertex 81.2501 7 -23.4489
      vertex 78.7749 -7 -18.7937
      vertex 81.2501 -7 -23.4489
    endloop
  endfacet
  facet normal -0 0 1
    outer loop
      vertex 77.7251 7 -18.7937
      vertex 78.7749 -7 -18.7937
      vertex 78.7749 7 -18.7937
    endloop
  endfacet
  facet normal 0 0 1
    outer loop
      vertex 78.7749 -7 -18.7937
      vertex 77.7251 7 -18.7937
      vertex 77.7251 -7 -18.7937
    endloop
  endfacet
  facet normal -0.882947 0 0.469474
    outer loop
      vertex 75.2499 -7 -23.4489
      vertex 77.7251 7 -18.7937
      vertex 75.2499 7 -23.4489
    endloop
  endfacet
  facet normal -0.882947 0 0.469474
    outer loop
      vertex 77.7251 7 -18.7937
      vertex 75.2499 -7 -23.4489
      vertex 77.7251 -7 -18.7937
    endloop
  endfacet
  facet normal -0 0 1
    outer loop
      vertex 87.7501 7 -23.4489
      vertex 88.2499 -7 -23.4489
      vertex 88.2499 7 -23.4489
    endloop
  endfacet
  facet normal 0 0 1
    outer loop
      vertex 88.2499 -7 -23.4489
      vertex 87.7501 7 -23.4489
      vertex 87.7501 -7 -23.4489
    endloop
  endfacet
  facet normal 0.882947 -0 0.469474
    outer loop
      vertex 85.2749 -7 -18.7937
      vertex 87.7501 7 -23.4489
      vertex 85.2749 7 -18.7937
    endloop
  endfacet
  facet normal 0.882947 0 0.469474
    outer loop
      vertex 87.7501 7 -23.4489
      vertex 85.2749 -7 -18.7937
      vertex 87.7501 -7 -23.4489
    endloop
  endfacet
  facet normal -0 0 1
    outer loop
      vertex 84.2251 7 -18.7937
      vertex 85.2749 -7 -18.7937
      vertex 85.2749 7 -18.7937
    endloop
  endfacet
  facet normal 0 0 1
    outer loop
      vertex 85.2749 -7 -18.7937
      vertex 84.2251 7 -18.7937
      vertex 84.2251 -7 -18.7937
    endloop
  endfacet
  facet normal -0.882947 0 0.469474
    outer loop
      vertex 81.7499 -7 -23.4489
      vertex 84.2251 7 -18.7937
      vertex 81.7499 7 -23.4489
    endloop
  endfacet
  facet normal -0.882947 0 0.469474
    outer loop
      vertex 84.2251 7 -18.7937
      vertex 81.7499 -7 -23.4489
      vertex 84.2251 -7 -18.7937
    endloop
  endfacet
  facet normal 0.882948 -0 0.469471
    outer loop
      vertex 91.7749 -7 -18.7937
      vertex 91.965 7 -19.1513
      vertex 91.7749 7 -18.7937
    endloop
  endfacet
  facet normal 0.882948 0 0.469471
    outer loop
      vertex 91.965 7 -19.1513
      vertex 91.7749 -7 -18.7937
      vertex 91.965 -7 -19.1513
    endloop
  endfacet
  facet normal -0 0 1
    outer loop
      vertex 90.7251 7 -18.7937
      vertex 91.7749 -7 -18.7937
      vertex 91.7749 7 -18.7937
    endloop
  endfacet
  facet normal 0 0 1
    outer loop
      vertex 91.7749 -7 -18.7937
      vertex 90.7251 7 -18.7937
      vertex 90.7251 -7 -18.7937
    endloop
  endfacet
  facet normal -0.882947 0 0.469474
    outer loop
      vertex 88.2499 -7 -23.4489
      vertex 90.7251 7 -18.7937
      vertex 88.2499 7 -23.4489
    endloop
  endfacet
  facet normal -0.882947 0 0.469474
    outer loop
      vertex 90.7251 7 -18.7937
      vertex 88.2499 -7 -23.4489
      vertex 90.7251 -7 -18.7937
    endloop
  endfacet
  facet normal -1 0 0
    outer loop
      vertex -19.965 -7 -24.2
      vertex -19.965 7 -14.7937
      vertex -19.965 7 -24.2
    endloop
  endfacet
  facet normal -1 -0 0
    outer loop
      vertex -19.965 7 -14.7937
      vertex -19.965 -7 -24.2
      vertex -19.965 -7 -14.7937
    endloop
  endfacet
  facet normal -1 0 0
    outer loop
      vertex -19.965 -7 -26.7937
      vertex -19.965 7 -26.7
      vertex -19.965 7 -26.7937
    endloop
  endfacet
  facet normal -1 -0 0
    outer loop
      vertex -19.965 7 -26.7
      vertex -19.965 -7 -26.7937
      vertex -19.965 -7 -26.7
    endloop
  endfacet
  facet normal 1 -0 0
    outer loop
      vertex -13.465 -7 -14.7937
      vertex -13.465 7 -19.1513
      vertex -13.465 7 -14.7937
    endloop
  endfacet
  facet normal 1 0 0
    outer loop
      vertex -13.465 7 -19.1513
      vertex -13.465 -7 -14.7937
      vertex -13.465 -7 -19.1513
    endloop
  endfacet
  facet normal 1 -0 0
    outer loop
      vertex -13.465 -7 -26.7936
      vertex -13.465 7 -26.7937
      vertex -13.465 7 -26.7936
    endloop
  endfacet
  facet normal 1 0 0
    outer loop
      vertex -13.465 7 -26.7937
      vertex -13.465 -7 -26.7936
      vertex -13.465 -7 -26.7937
    endloop
  endfacet
  facet normal -0 0 1
    outer loop
      vertex -19.965 7 -14.7937
      vertex -13.465 -7 -14.7937
      vertex -13.465 7 -14.7937
    endloop
  endfacet
  facet normal 0 0 1
    outer loop
      vertex -13.465 -7 -14.7937
      vertex -19.965 7 -14.7937
      vertex -19.965 -7 -14.7937
    endloop
  endfacet
  facet normal 0 0 -1
    outer loop
      vertex -19.965 -7 -26.7937
      vertex -13.465 7 -26.7937
      vertex -13.465 -7 -26.7937
    endloop
  endfacet
  facet normal -0 0 -1
    outer loop
      vertex -13.465 7 -26.7937
      vertex -19.965 -7 -26.7937
      vertex -19.965 7 -26.7937
    endloop
  endfacet
  facet normal -1 0 0
    outer loop
      vertex 91.965 -7 -19.1513
      vertex 91.965 7 -14.7937
      vertex 91.965 7 -19.1513
    endloop
  endfacet
  facet normal -1 -0 0
    outer loop
      vertex 91.965 7 -14.7937
      vertex 91.965 -7 -19.1513
      vertex 91.965 -7 -14.7937
    endloop
  endfacet
  facet normal -1 0 0
    outer loop
      vertex 91.965 -7 -26.7937
      vertex 91.965 7 -26.7936
      vertex 91.965 7 -26.7937
    endloop
  endfacet
  facet normal -1 -0 0
    outer loop
      vertex 91.965 7 -26.7936
      vertex 91.965 -7 -26.7937
      vertex 91.965 -7 -26.7936
    endloop
  endfacet
  facet normal 1 -0 0
    outer loop
      vertex 98.465 -7 -14.7937
      vertex 98.465 7 -24.2
      vertex 98.465 7 -14.7937
    endloop
  endfacet
  facet normal 1 0 0
    outer loop
      vertex 98.465 7 -24.2
      vertex 98.465 -7 -14.7937
      vertex 98.465 -7 -24.2
    endloop
  endfacet
  facet normal 1 -0 0
    outer loop
      vertex 98.465 -7 -26.7
      vertex 98.465 7 -26.7937
      vertex 98.465 7 -26.7
    endloop
  endfacet
  facet normal 1 0 0
    outer loop
      vertex 98.465 7 -26.7937
      vertex 98.465 -7 -26.7
      vertex 98.465 -7 -26.7937
    endloop
  endfacet
  facet normal -0 0 1
    outer loop
      vertex 91.965 7 -14.7937
      vertex 98.465 -7 -14.7937
      vertex 98.465 7 -14.7937
    endloop
  endfacet
  facet normal 0 0 1
    outer loop
      vertex 98.465 -7 -14.7937
      vertex 91.965 7 -14.7937
      vertex 91.965 -7 -14.7937
    endloop
  endfacet
  facet normal 0 0 -1
    outer loop
      vertex 91.965 -7 -26.7937
      vertex 98.465 7 -26.7937
      vertex 98.465 -7 -26.7937
    endloop
  endfacet
  facet normal -0 0 -1
    outer loop
      vertex 98.465 7 -26.7937
      vertex 91.965 -7 -26.7937
      vertex 91.965 7 -26.7937
    endloop
  endfacet
  facet normal -1 0 0
    outer loop
      vertex -50 -10 -26.7
      vertex -50 10 -14.7
      vertex -50 10 -26.7
    endloop
  endfacet
  facet normal -1 -0 0
    outer loop
      vertex -50 10 -14.7
      vertex -50 -10 -26.7
      vertex -50 -10 -14.7
    endloop
  endfacet
  facet normal 0 0 1
    outer loop
      vertex -20 10 -14.7
      vertex -36 0 -14.7
      vertex -20 -10 -14.7
    endloop
  endfacet
  facet normal 0 0 1
    outer loop
      vertex -20 10 -14.7
      vertex -36.4582 1.85889 -14.7
      vertex -36 0 -14.7
    endloop
  endfacet
  facet normal 0 0 1
    outer loop
      vertex -20 10 -14.7
      vertex -37.7277 3.29193 -14.7
      vertex -36.4582 1.85889 -14.7
    endloop
  endfacet
  facet normal 0 0 1
    outer loop
      vertex -20 10 -14.7
      vertex -39.5179 3.97083 -14.7
      vertex -37.7277 3.29193 -14.7
    endloop
  endfacet
  facet normal -0 0 1
    outer loop
      vertex -50 10 -14.7
      vertex -39.5179 3.97083 -14.7
      vertex -20 10 -14.7
    endloop
  endfacet
  facet normal 0 0 1
    outer loop
      vertex -43.8838 0.957262 -14.7
      vertex -50 10 -14.7
      vertex -43.8838 -0.957262 -14.7
    endloop
  endfacet
  facet normal 0 0 1
    outer loop
      vertex -42.994 2.65249 -14.7
      vertex -50 10 -14.7
      vertex -43.8838 0.957262 -14.7
    endloop
  endfacet
  facet normal 0 0 1
    outer loop
      vertex -41.4184 3.74006 -14.7
      vertex -50 10 -14.7
      vertex -42.994 2.65249 -14.7
    endloop
  endfacet
  facet normal 0 0 1
    outer loop
      vertex -39.5179 3.97083 -14.7
      vertex -50 10 -14.7
      vertex -41.4184 3.74006 -14.7
    endloop
  endfacet
  facet normal -0 0 1
    outer loop
      vertex -36.4582 -1.85889 -14.7
      vertex -20 -10 -14.7
      vertex -36 0 -14.7
    endloop
  endfacet
  facet normal -0 0 1
    outer loop
      vertex -37.7277 -3.29193 -14.7
      vertex -20 -10 -14.7
      vertex -36.4582 -1.85889 -14.7
    endloop
  endfacet
  facet normal -0 0 1
    outer loop
      vertex -39.5179 -3.97083 -14.7
      vertex -20 -10 -14.7
      vertex -37.7277 -3.29193 -14.7
    endloop
  endfacet
  facet normal 0 0 1
    outer loop
      vertex -50 -10 -14.7
      vertex -39.5179 -3.97083 -14.7
      vertex -41.4184 -3.74006 -14.7
    endloop
  endfacet
  facet normal 0 0 1
    outer loop
      vertex -50 -10 -14.7
      vertex -43.8838 -0.957262 -14.7
      vertex -50 10 -14.7
    endloop
  endfacet
  facet normal 0 0 1
    outer loop
      vertex -39.5179 -3.97083 -14.7
      vertex -50 -10 -14.7
      vertex -20 -10 -14.7
    endloop
  endfacet
  facet normal 0 0 1
    outer loop
      vertex -42.994 -2.65249 -14.7
      vertex -50 -10 -14.7
      vertex -41.4184 -3.74006 -14.7
    endloop
  endfacet
  facet normal 0 0 1
    outer loop
      vertex -43.8838 -0.957262 -14.7
      vertex -50 -10 -14.7
      vertex -42.994 -2.65249 -14.7
    endloop
  endfacet
  facet normal 1 -0 0
    outer loop
      vertex -20 -10 -14.7
      vertex -20 10 -24.2
      vertex -20 10 -14.7
    endloop
  endfacet
  facet normal 1 0 0
    outer loop
      vertex -20 10 -24.2
      vertex -20 -10 -14.7
      vertex -20 -10 -24.2
    endloop
  endfacet
  facet normal 0 0 -1
    outer loop
      vertex 100 -10 -26.7
      vertex 98.465 -7 -26.7
      vertex 100 10 -26.7
    endloop
  endfacet
  facet normal 0 0 -1
    outer loop
      vertex 100 -10 -26.7
      vertex -19.965 -7 -26.7
      vertex 98.465 -7 -26.7
    endloop
  endfacet
  facet normal 0 0 -1
    outer loop
      vertex -19.965 -7 -26.7
      vertex -31.8 0 -26.7
      vertex -19.965 7 -26.7
    endloop
  endfacet
  facet normal 0 0 -1
    outer loop
      vertex -19.965 -7 -26.7
      vertex -32.0383 -1.96239 -26.7
      vertex -31.8 0 -26.7
    endloop
  endfacet
  facet normal 0 0 -1
    outer loop
      vertex -19.965 -7 -26.7
      vertex -32.7393 -3.81073 -26.7
      vertex -32.0383 -1.96239 -26.7
    endloop
  endfacet
  facet normal 0 0 -1
    outer loop
      vertex -19.965 -7 -26.7
      vertex -33.8622 -5.4376 -26.7
      vertex -32.7393 -3.81073 -26.7
    endloop
  endfacet
  facet normal 0 0 -1
    outer loop
      vertex -19.965 -7 -26.7
      vertex -35.3419 -6.74847 -26.7
      vertex -33.8622 -5.4376 -26.7
    endloop
  endfacet
  facet normal 0 0 -1
    outer loop
      vertex -50 -10 -26.7
      vertex -19.965 -7 -26.7
      vertex 100 -10 -26.7
    endloop
  endfacet
  facet normal -0 0 -1
    outer loop
      vertex -19.965 -7 -26.7
      vertex -37.0922 -7.66713 -26.7
      vertex -35.3419 -6.74847 -26.7
    endloop
  endfacet
  facet normal 0 0 -1
    outer loop
      vertex -19.965 -7 -26.7
      vertex -39.0116 -8.14021 -26.7
      vertex -37.0922 -7.66713 -26.7
    endloop
  endfacet
  facet normal 0 0 -1
    outer loop
      vertex -19.965 -7 -26.7
      vertex -50 -10 -26.7
      vertex -39.0116 -8.14021 -26.7
    endloop
  endfacet
  facet normal -0 0 -1
    outer loop
      vertex -47.9617 -1.96239 -26.7
      vertex -50 -10 -26.7
      vertex -48.2 0 -26.7
    endloop
  endfacet
  facet normal -0 0 -1
    outer loop
      vertex -47.2607 -3.81073 -26.7
      vertex -50 -10 -26.7
      vertex -47.9617 -1.96239 -26.7
    endloop
  endfacet
  facet normal -0 0 -1
    outer loop
      vertex -46.1378 -5.4376 -26.7
      vertex -50 -10 -26.7
      vertex -47.2607 -3.81073 -26.7
    endloop
  endfacet
  facet normal -0 0 -1
    outer loop
      vertex -44.6581 -6.74847 -26.7
      vertex -50 -10 -26.7
      vertex -46.1378 -5.4376 -26.7
    endloop
  endfacet
  facet normal -0 0 -1
    outer loop
      vertex -42.9078 -7.66713 -26.7
      vertex -50 -10 -26.7
      vertex -44.6581 -6.74847 -26.7
    endloop
  endfacet
  facet normal -0 0 -1
    outer loop
      vertex -40.9884 -8.14021 -26.7
      vertex -50 -10 -26.7
      vertex -42.9078 -7.66713 -26.7
    endloop
  endfacet
  facet normal -0 0 -1
    outer loop
      vertex -39.0116 -8.14021 -26.7
      vertex -50 -10 -26.7
      vertex -40.9884 -8.14021 -26.7
    endloop
  endfacet
  facet normal 0 0 -1
    outer loop
      vertex 98.465 7 -26.7
      vertex 100 10 -26.7
      vertex 98.465 -7 -26.7
    endloop
  endfacet
  facet normal 0 0 -1
    outer loop
      vertex -19.965 7 -26.7
      vertex 100 10 -26.7
      vertex 98.465 7 -26.7
    endloop
  endfacet
  facet normal 0 0 -1
    outer loop
      vertex -32.0383 1.96239 -26.7
      vertex -19.965 7 -26.7
      vertex -31.8 0 -26.7
    endloop
  endfacet
  facet normal 0 0 -1
    outer loop
      vertex -32.7393 3.81073 -26.7
      vertex -19.965 7 -26.7
      vertex -32.0383 1.96239 -26.7
    endloop
  endfacet
  facet normal 0 0 -1
    outer loop
      vertex -33.8622 5.4376 -26.7
      vertex -19.965 7 -26.7
      vertex -32.7393 3.81073 -26.7
    endloop
  endfacet
  facet normal 0 0 -1
    outer loop
      vertex -35.3419 6.74847 -26.7
      vertex -19.965 7 -26.7
      vertex -33.8622 5.4376 -26.7
    endloop
  endfacet
  facet normal 0 0 -1
    outer loop
      vertex -37.0922 7.66713 -26.7
      vertex -19.965 7 -26.7
      vertex -35.3419 6.74847 -26.7
    endloop
  endfacet
  facet normal 0 0 -1
    outer loop
      vertex -39.0116 8.14021 -26.7
      vertex -19.965 7 -26.7
      vertex -37.0922 7.66713 -26.7
    endloop
  endfacet
  facet normal 0 0 -1
    outer loop
      vertex -50 10 -26.7
      vertex -19.965 7 -26.7
      vertex -39.0116 8.14021 -26.7
    endloop
  endfacet
  facet normal 0 0 -1
    outer loop
      vertex -50 10 -26.7
      vertex -39.0116 8.14021 -26.7
      vertex -40.9884 8.14021 -26.7
    endloop
  endfacet
  facet normal 0 0 -1
    outer loop
      vertex -50 10 -26.7
      vertex -48.2 0 -26.7
      vertex -50 -10 -26.7
    endloop
  endfacet
  facet normal 0 0 -1
    outer loop
      vertex -19.965 7 -26.7
      vertex -50 10 -26.7
      vertex 100 10 -26.7
    endloop
  endfacet
  facet normal 0 0 -1
    outer loop
      vertex -42.9078 7.66713 -26.7
      vertex -50 10 -26.7
      vertex -40.9884 8.14021 -26.7
    endloop
  endfacet
  facet normal 0 0 -1
    outer loop
      vertex -44.6581 6.74847 -26.7
      vertex -50 10 -26.7
      vertex -42.9078 7.66713 -26.7
    endloop
  endfacet
  facet normal 0 0 -1
    outer loop
      vertex -46.1378 5.4376 -26.7
      vertex -50 10 -26.7
      vertex -44.6581 6.74847 -26.7
    endloop
  endfacet
  facet normal 0 0 -1
    outer loop
      vertex -47.2607 3.81073 -26.7
      vertex -50 10 -26.7
      vertex -46.1378 5.4376 -26.7
    endloop
  endfacet
  facet normal 0 0 -1
    outer loop
      vertex -47.9617 1.96239 -26.7
      vertex -50 10 -26.7
      vertex -47.2607 3.81073 -26.7
    endloop
  endfacet
  facet normal 0 0 -1
    outer loop
      vertex -48.2 0 -26.7
      vertex -50 10 -26.7
      vertex -47.9617 1.96239 -26.7
    endloop
  endfacet
  facet normal 0 -1 0
    outer loop
      vertex -50 -10 -14.7
      vertex -20 -10 -24.2
      vertex -20 -10 -14.7
    endloop
  endfacet
  facet normal 0 -1 0
    outer loop
      vertex -50 -10 -26.7
      vertex -20 -10 -24.2
      vertex -50 -10 -14.7
    endloop
  endfacet
  facet normal 0 -1 0
    outer loop
      vertex 100 -10 -26.7
      vertex -20 -10 -24.2
      vertex -50 -10 -26.7
    endloop
  endfacet
  facet normal 0 -1 0
    outer loop
      vertex -20 -10 -24.2
      vertex 100 -10 -26.7
      vertex 100 -10 -24.2
    endloop
  endfacet
  facet normal 0 1 0
    outer loop
      vertex 100 10 -24.2
      vertex 100 10 -26.7
      vertex -20 10 -24.2
    endloop
  endfacet
  facet normal 0 1 -0
    outer loop
      vertex -20 10 -24.2
      vertex -50 10 -14.7
      vertex -20 10 -14.7
    endloop
  endfacet
  facet normal 0 1 0
    outer loop
      vertex -20 10 -24.2
      vertex -50 10 -26.7
      vertex -50 10 -14.7
    endloop
  endfacet
  facet normal 0 1 0
    outer loop
      vertex -50 10 -26.7
      vertex -20 10 -24.2
      vertex 100 10 -26.7
    endloop
  endfacet
  facet normal 0 0 1
    outer loop
      vertex 100 10 -24.2
      vertex 98.465 7 -24.2
      vertex 100 -10 -24.2
    endloop
  endfacet
  facet normal -0 0 1
    outer loop
      vertex -20 10 -24.2
      vertex 98.465 7 -24.2
      vertex 100 10 -24.2
    endloop
  endfacet
  facet normal 0 0 1
    outer loop
      vertex -19.965 7 -24.2
      vertex -20 10 -24.2
      vertex -19.965 -7 -24.2
    endloop
  endfacet
  facet normal 0 0 1
    outer loop
      vertex 98.465 7 -24.2
      vertex -20 10 -24.2
      vertex -19.965 7 -24.2
    endloop
  endfacet
  facet normal -0 0 1
    outer loop
      vertex 98.465 -7 -24.2
      vertex 100 -10 -24.2
      vertex 98.465 7 -24.2
    endloop
  endfacet
  facet normal 0 0 1
    outer loop
      vertex -20 -10 -24.2
      vertex 98.465 -7 -24.2
      vertex -19.965 -7 -24.2
    endloop
  endfacet
  facet normal 0 0 1
    outer loop
      vertex 98.465 -7 -24.2
      vertex -20 -10 -24.2
      vertex 100 -10 -24.2
    endloop
  endfacet
  facet normal 0 0 1
    outer loop
      vertex -20 -10 -24.2
      vertex -19.965 -7 -24.2
      vertex -20 10 -24.2
    endloop
  endfacet
  facet normal 1 -0 0
    outer loop
      vertex 100 -10 -24.2
      vertex 100 10 -26.7
      vertex 100 10 -24.2
    endloop
  endfacet
  facet normal 1 0 0
    outer loop
      vertex 100 10 -26.7
      vertex 100 -10 -24.2
      vertex 100 -10 -26.7
    endloop
  endfacet
  facet normal 0.970942 0.239316 0
    outer loop
      vertex -36 0 -5
      vertex -36.4582 1.85889 -14.7
      vertex -36.4582 1.85889 -5
    endloop
  endfacet
  facet normal 0.970942 0.239316 0
    outer loop
      vertex -36.4582 1.85889 -14.7
      vertex -36 0 -5
      vertex -36 0 -14.7
    endloop
  endfacet
  facet normal -1 0 0
    outer loop
      vertex -43.8838 -0.957262 -14.7
      vertex -43.8838 0.957262 -5
      vertex -43.8838 0.957262 -14.7
    endloop
  endfacet
  facet normal -1 -0 0
    outer loop
      vertex -43.8838 0.957262 -5
      vertex -43.8838 -0.957262 -14.7
      vertex -43.8838 -0.957262 -5
    endloop
  endfacet
  facet normal -0.120536 0.992709 0
    outer loop
      vertex -39.5179 3.97083 -14.7
      vertex -41.4184 3.74006 -5
      vertex -39.5179 3.97083 -5
    endloop
  endfacet
  facet normal -0.120536 0.992709 0
    outer loop
      vertex -41.4184 3.74006 -5
      vertex -39.5179 3.97083 -14.7
      vertex -41.4184 3.74006 -14.7
    endloop
  endfacet
  facet normal 0.748511 0.663123 0
    outer loop
      vertex -36.4582 1.85889 -5
      vertex -37.7277 3.29193 -14.7
      vertex -37.7277 3.29193 -5
    endloop
  endfacet
  facet normal 0.748511 0.663123 0
    outer loop
      vertex -37.7277 3.29193 -14.7
      vertex -36.4582 1.85889 -5
      vertex -36.4582 1.85889 -14.7
    endloop
  endfacet
  facet normal -0.568065 0.822984 0
    outer loop
      vertex -41.4184 3.74006 -14.7
      vertex -42.994 2.65249 -5
      vertex -41.4184 3.74006 -5
    endloop
  endfacet
  facet normal -0.568065 0.822984 0
    outer loop
      vertex -42.994 2.65249 -5
      vertex -41.4184 3.74006 -14.7
      vertex -42.994 2.65249 -14.7
    endloop
  endfacet
  facet normal 0.354605 -0.935016 0
    outer loop
      vertex -39.5179 -3.97083 -14.7
      vertex -37.7277 -3.29193 -5
      vertex -39.5179 -3.97083 -5
    endloop
  endfacet
  facet normal 0.354605 -0.935016 0
    outer loop
      vertex -37.7277 -3.29193 -5
      vertex -39.5179 -3.97083 -14.7
      vertex -37.7277 -3.29193 -14.7
    endloop
  endfacet
  facet normal 0.354605 0.935016 -0
    outer loop
      vertex -37.7277 3.29193 -14.7
      vertex -39.5179 3.97083 -5
      vertex -37.7277 3.29193 -5
    endloop
  endfacet
  facet normal 0.354605 0.935016 0
    outer loop
      vertex -39.5179 3.97083 -5
      vertex -37.7277 3.29193 -14.7
      vertex -39.5179 3.97083 -14.7
    endloop
  endfacet
  facet normal -0.885456 0.464723 0
    outer loop
      vertex -43.8838 0.957262 -14.7
      vertex -42.994 2.65249 -5
      vertex -42.994 2.65249 -14.7
    endloop
  endfacet
  facet normal -0.885456 0.464723 0
    outer loop
      vertex -42.994 2.65249 -5
      vertex -43.8838 0.957262 -14.7
      vertex -43.8838 0.957262 -5
    endloop
  endfacet
  facet normal 0 0 1
    outer loop
      vertex -37.5 0 -5
      vertex -36 0 -5
      vertex -36.4582 1.85889 -5
    endloop
  endfacet
  facet normal 0 0 1
    outer loop
      vertex -36 0 -5
      vertex -37.5 0 -5
      vertex -36.4582 -1.85889 -5
    endloop
  endfacet
  facet normal 0 0 1
    outer loop
      vertex -38.2322 1.76777 -5
      vertex -36.4582 1.85889 -5
      vertex -37.7277 3.29193 -5
    endloop
  endfacet
  facet normal 0 0 1
    outer loop
      vertex -36.4582 1.85889 -5
      vertex -38.2322 1.76777 -5
      vertex -37.5 0 -5
    endloop
  endfacet
  facet normal 0 0 1
    outer loop
      vertex -40 2.5 -5
      vertex -37.7277 3.29193 -5
      vertex -39.5179 3.97083 -5
    endloop
  endfacet
  facet normal 0 0 1
    outer loop
      vertex -37.7277 3.29193 -5
      vertex -40 2.5 -5
      vertex -38.2322 1.76777 -5
    endloop
  endfacet
  facet normal -0 0 1
    outer loop
      vertex -41.4184 3.74006 -5
      vertex -40 2.5 -5
      vertex -39.5179 3.97083 -5
    endloop
  endfacet
  facet normal 0 0 1
    outer loop
      vertex -41.4184 3.74006 -5
      vertex -41.7678 1.76777 -5
      vertex -40 2.5 -5
    endloop
  endfacet
  facet normal -0 0 1
    outer loop
      vertex -42.994 2.65249 -5
      vertex -41.7678 1.76777 -5
      vertex -41.4184 3.74006 -5
    endloop
  endfacet
  facet normal 0 0 1
    outer loop
      vertex -43.8838 0.957262 -5
      vertex -41.7678 1.76777 -5
      vertex -42.994 2.65249 -5
    endloop
  endfacet
  facet normal -0 0 1
    outer loop
      vertex -38.2322 -1.76777 -5
      vertex -36.4582 -1.85889 -5
      vertex -37.5 0 -5
    endloop
  endfacet
  facet normal 0 0 1
    outer loop
      vertex -36.4582 -1.85889 -5
      vertex -38.2322 -1.76777 -5
      vertex -37.7277 -3.29193 -5
    endloop
  endfacet
  facet normal -0 0 1
    outer loop
      vertex -40 -2.5 -5
      vertex -37.7277 -3.29193 -5
      vertex -38.2322 -1.76777 -5
    endloop
  endfacet
  facet normal 0 0 1
    outer loop
      vertex -37.7277 -3.29193 -5
      vertex -40 -2.5 -5
      vertex -39.5179 -3.97083 -5
    endloop
  endfacet
  facet normal 0 0 1
    outer loop
      vertex -40 -2.5 -5
      vertex -41.4184 -3.74006 -5
      vertex -39.5179 -3.97083 -5
    endloop
  endfacet
  facet normal 0 0 1
    outer loop
      vertex -41.7678 -1.76777 -5
      vertex -41.4184 -3.74006 -5
      vertex -40 -2.5 -5
    endloop
  endfacet
  facet normal -0 0 1
    outer loop
      vertex -43.8838 -0.957262 -5
      vertex -41.7678 -1.76777 -5
      vertex -42.5 0 -5
    endloop
  endfacet
  facet normal 0 0 1
    outer loop
      vertex -41.7678 -1.76777 -5
      vertex -42.994 -2.65249 -5
      vertex -41.4184 -3.74006 -5
    endloop
  endfacet
  facet normal 0 0 1
    outer loop
      vertex -41.7678 1.76777 -5
      vertex -43.8838 0.957262 -5
      vertex -42.5 0 -5
    endloop
  endfacet
  facet normal 0 0 1
    outer loop
      vertex -43.8838 -0.957262 -5
      vertex -42.5 0 -5
      vertex -43.8838 0.957262 -5
    endloop
  endfacet
  facet normal 0 0 1
    outer loop
      vertex -41.7678 -1.76777 -5
      vertex -43.8838 -0.957262 -5
      vertex -42.994 -2.65249 -5
    endloop
  endfacet
  facet normal 0.970942 -0.239316 0
    outer loop
      vertex -36.4582 -1.85889 -5
      vertex -36 0 -14.7
      vertex -36 0 -5
    endloop
  endfacet
  facet normal 0.970942 -0.239316 0
    outer loop
      vertex -36 0 -14.7
      vertex -36.4582 -1.85889 -5
      vertex -36.4582 -1.85889 -14.7
    endloop
  endfacet
  facet normal 0.748511 -0.663123 0
    outer loop
      vertex -37.7277 -3.29193 -5
      vertex -36.4582 -1.85889 -14.7
      vertex -36.4582 -1.85889 -5
    endloop
  endfacet
  facet normal 0.748511 -0.663123 0
    outer loop
      vertex -36.4582 -1.85889 -14.7
      vertex -37.7277 -3.29193 -5
      vertex -37.7277 -3.29193 -14.7
    endloop
  endfacet
  facet normal -0.120536 -0.992709 0
    outer loop
      vertex -41.4184 -3.74006 -14.7
      vertex -39.5179 -3.97083 -5
      vertex -41.4184 -3.74006 -5
    endloop
  endfacet
  facet normal -0.120536 -0.992709 -0
    outer loop
      vertex -39.5179 -3.97083 -5
      vertex -41.4184 -3.74006 -14.7
      vertex -39.5179 -3.97083 -14.7
    endloop
  endfacet
  facet normal -0.568065 -0.822984 0
    outer loop
      vertex -42.994 -2.65249 -14.7
      vertex -41.4184 -3.74006 -5
      vertex -42.994 -2.65249 -5
    endloop
  endfacet
  facet normal -0.568065 -0.822984 -0
    outer loop
      vertex -41.4184 -3.74006 -5
      vertex -42.994 -2.65249 -14.7
      vertex -41.4184 -3.74006 -14.7
    endloop
  endfacet
  facet normal -0.885456 -0.464723 0
    outer loop
      vertex -42.994 -2.65249 -14.7
      vertex -43.8838 -0.957262 -5
      vertex -43.8838 -0.957262 -14.7
    endloop
  endfacet
  facet normal -0.885456 -0.464723 0
    outer loop
      vertex -43.8838 -0.957262 -5
      vertex -42.994 -2.65249 -14.7
      vertex -42.994 -2.65249 -5
    endloop
  endfacet
  facet normal 0.92388 -0.382683 0
    outer loop
      vertex -42.5 0 -5
      vertex -41.7678 1.76777 -23.5
      vertex -41.7678 1.76777 -5
    endloop
  endfacet
  facet normal 0.92388 -0.382683 0
    outer loop
      vertex -41.7678 1.76777 -23.5
      vertex -42.5 0 -5
      vertex -42.5 0 -23.5
    endloop
  endfacet
  facet normal 0.382683 -0.92388 0
    outer loop
      vertex -41.7678 1.76777 -23.5
      vertex -40 2.5 -5
      vertex -41.7678 1.76777 -5
    endloop
  endfacet
  facet normal 0.382683 -0.92388 0
    outer loop
      vertex -40 2.5 -5
      vertex -41.7678 1.76777 -23.5
      vertex -40 2.5 -23.5
    endloop
  endfacet
  facet normal 0.92388 0.382683 0
    outer loop
      vertex -41.7678 -1.76777 -5
      vertex -42.5 0 -23.5
      vertex -42.5 0 -5
    endloop
  endfacet
  facet normal 0.92388 0.382683 0
    outer loop
      vertex -42.5 0 -23.5
      vertex -41.7678 -1.76777 -5
      vertex -41.7678 -1.76777 -23.5
    endloop
  endfacet
  facet normal 0.382683 0.92388 -0
    outer loop
      vertex -40 -2.5 -23.5
      vertex -41.7678 -1.76777 -5
      vertex -40 -2.5 -5
    endloop
  endfacet
  facet normal 0.382683 0.92388 0
    outer loop
      vertex -41.7678 -1.76777 -5
      vertex -40 -2.5 -23.5
      vertex -41.7678 -1.76777 -23.5
    endloop
  endfacet
  facet normal -0.92388 -0.382683 0
    outer loop
      vertex -37.5 0 -23.5
      vertex -38.2322 1.76777 -5
      vertex -38.2322 1.76777 -23.5
    endloop
  endfacet
  facet normal -0.92388 -0.382683 0
    outer loop
      vertex -38.2322 1.76777 -5
      vertex -37.5 0 -23.5
      vertex -37.5 0 -5
    endloop
  endfacet
  facet normal -0.382683 -0.92388 0
    outer loop
      vertex -40 2.5 -23.5
      vertex -38.2322 1.76777 -5
      vertex -40 2.5 -5
    endloop
  endfacet
  facet normal -0.382683 -0.92388 -0
    outer loop
      vertex -38.2322 1.76777 -5
      vertex -40 2.5 -23.5
      vertex -38.2322 1.76777 -23.5
    endloop
  endfacet
  facet normal -0.382683 0.92388 0
    outer loop
      vertex -38.2322 -1.76777 -23.5
      vertex -40 -2.5 -5
      vertex -38.2322 -1.76777 -5
    endloop
  endfacet
  facet normal -0.382683 0.92388 0
    outer loop
      vertex -40 -2.5 -5
      vertex -38.2322 -1.76777 -23.5
      vertex -40 -2.5 -23.5
    endloop
  endfacet
  facet normal -0.92388 0.382683 0
    outer loop
      vertex -38.2322 -1.76777 -23.5
      vertex -37.5 0 -5
      vertex -37.5 0 -23.5
    endloop
  endfacet
  facet normal -0.92388 0.382683 0
    outer loop
      vertex -37.5 0 -5
      vertex -38.2322 -1.76777 -23.5
      vertex -38.2322 -1.76777 -5
    endloop
  endfacet
  facet normal -0.992709 -0.120537 0
    outer loop
      vertex -31.8 0 -26.7
      vertex -32.0383 1.96239 -23.5
      vertex -32.0383 1.96239 -26.7
    endloop
  endfacet
  facet normal -0.992709 -0.120537 0
    outer loop
      vertex -32.0383 1.96239 -23.5
      vertex -31.8 0 -26.7
      vertex -31.8 0 -23.5
    endloop
  endfacet
  facet normal 0 -1 0
    outer loop
      vertex -40.9884 8.14021 -26.7
      vertex -39.0116 8.14021 -23.5
      vertex -40.9884 8.14021 -23.5
    endloop
  endfacet
  facet normal 0 -1 -0
    outer loop
      vertex -39.0116 8.14021 -23.5
      vertex -40.9884 8.14021 -26.7
      vertex -39.0116 8.14021 -26.7
    endloop
  endfacet
  facet normal -0.822983 -0.568066 0
    outer loop
      vertex -32.7393 3.81073 -26.7
      vertex -33.8622 5.4376 -23.5
      vertex -33.8622 5.4376 -26.7
    endloop
  endfacet
  facet normal -0.822983 -0.568066 0
    outer loop
      vertex -33.8622 5.4376 -23.5
      vertex -32.7393 3.81073 -26.7
      vertex -32.7393 3.81073 -23.5
    endloop
  endfacet
  facet normal -0.935017 -0.354604 0
    outer loop
      vertex -32.0383 1.96239 -26.7
      vertex -32.7393 3.81073 -23.5
      vertex -32.7393 3.81073 -26.7
    endloop
  endfacet
  facet normal -0.935017 -0.354604 0
    outer loop
      vertex -32.7393 3.81073 -23.5
      vertex -32.0383 1.96239 -26.7
      vertex -32.0383 1.96239 -23.5
    endloop
  endfacet
  facet normal -0.239316 -0.970942 0
    outer loop
      vertex -39.0116 8.14021 -26.7
      vertex -37.0922 7.66713 -23.5
      vertex -39.0116 8.14021 -23.5
    endloop
  endfacet
  facet normal -0.239316 -0.970942 -0
    outer loop
      vertex -37.0922 7.66713 -23.5
      vertex -39.0116 8.14021 -26.7
      vertex -37.0922 7.66713 -26.7
    endloop
  endfacet
  facet normal 0.464723 -0.885456 0
    outer loop
      vertex -44.6581 6.74847 -26.7
      vertex -42.9078 7.66713 -23.5
      vertex -44.6581 6.74847 -23.5
    endloop
  endfacet
  facet normal 0.464723 -0.885456 0
    outer loop
      vertex -42.9078 7.66713 -23.5
      vertex -44.6581 6.74847 -26.7
      vertex -42.9078 7.66713 -26.7
    endloop
  endfacet
  facet normal 0.663123 -0.74851 0
    outer loop
      vertex -46.1378 5.4376 -26.7
      vertex -44.6581 6.74847 -23.5
      vertex -46.1378 5.4376 -23.5
    endloop
  endfacet
  facet normal 0.663123 -0.74851 0
    outer loop
      vertex -44.6581 6.74847 -23.5
      vertex -46.1378 5.4376 -26.7
      vertex -44.6581 6.74847 -26.7
    endloop
  endfacet
  facet normal -0.239316 0.970942 0
    outer loop
      vertex -37.0922 -7.66713 -26.7
      vertex -39.0116 -8.14021 -23.5
      vertex -37.0922 -7.66713 -23.5
    endloop
  endfacet
  facet normal -0.239316 0.970942 0
    outer loop
      vertex -39.0116 -8.14021 -23.5
      vertex -37.0922 -7.66713 -26.7
      vertex -39.0116 -8.14021 -26.7
    endloop
  endfacet
  facet normal -0.663123 -0.74851 0
    outer loop
      vertex -35.3419 6.74847 -26.7
      vertex -33.8622 5.4376 -23.5
      vertex -35.3419 6.74847 -23.5
    endloop
  endfacet
  facet normal -0.663123 -0.74851 -0
    outer loop
      vertex -33.8622 5.4376 -23.5
      vertex -35.3419 6.74847 -26.7
      vertex -33.8622 5.4376 -26.7
    endloop
  endfacet
  facet normal -0.464723 -0.885456 0
    outer loop
      vertex -37.0922 7.66713 -26.7
      vertex -35.3419 6.74847 -23.5
      vertex -37.0922 7.66713 -23.5
    endloop
  endfacet
  facet normal -0.464723 -0.885456 -0
    outer loop
      vertex -35.3419 6.74847 -23.5
      vertex -37.0922 7.66713 -26.7
      vertex -35.3419 6.74847 -26.7
    endloop
  endfacet
  facet normal 0.992709 -0.120537 0
    outer loop
      vertex -48.2 0 -23.5
      vertex -47.9617 1.96239 -26.7
      vertex -47.9617 1.96239 -23.5
    endloop
  endfacet
  facet normal 0.992709 -0.120537 0
    outer loop
      vertex -47.9617 1.96239 -26.7
      vertex -48.2 0 -23.5
      vertex -48.2 0 -26.7
    endloop
  endfacet
  facet normal 0.822984 -0.568065 0
    outer loop
      vertex -47.2607 3.81073 -23.5
      vertex -46.1378 5.4376 -26.7
      vertex -46.1378 5.4376 -23.5
    endloop
  endfacet
  facet normal 0.822984 -0.568065 0
    outer loop
      vertex -46.1378 5.4376 -26.7
      vertex -47.2607 3.81073 -23.5
      vertex -47.2607 3.81073 -26.7
    endloop
  endfacet
  facet normal 0.239316 -0.970942 0
    outer loop
      vertex -42.9078 7.66713 -26.7
      vertex -40.9884 8.14021 -23.5
      vertex -42.9078 7.66713 -23.5
    endloop
  endfacet
  facet normal 0.239316 -0.970942 0
    outer loop
      vertex -40.9884 8.14021 -23.5
      vertex -42.9078 7.66713 -26.7
      vertex -40.9884 8.14021 -26.7
    endloop
  endfacet
  facet normal -0.935017 0.354604 0
    outer loop
      vertex -32.7393 -3.81073 -26.7
      vertex -32.0383 -1.96239 -23.5
      vertex -32.0383 -1.96239 -26.7
    endloop
  endfacet
  facet normal -0.935017 0.354604 0
    outer loop
      vertex -32.0383 -1.96239 -23.5
      vertex -32.7393 -3.81073 -26.7
      vertex -32.7393 -3.81073 -23.5
    endloop
  endfacet
  facet normal 0.822984 0.568065 0
    outer loop
      vertex -46.1378 -5.4376 -23.5
      vertex -47.2607 -3.81073 -26.7
      vertex -47.2607 -3.81073 -23.5
    endloop
  endfacet
  facet normal 0.822984 0.568065 0
    outer loop
      vertex -47.2607 -3.81073 -26.7
      vertex -46.1378 -5.4376 -23.5
      vertex -46.1378 -5.4376 -26.7
    endloop
  endfacet
  facet normal -0.663123 0.74851 0
    outer loop
      vertex -33.8622 -5.4376 -26.7
      vertex -35.3419 -6.74847 -23.5
      vertex -33.8622 -5.4376 -23.5
    endloop
  endfacet
  facet normal -0.663123 0.74851 0
    outer loop
      vertex -35.3419 -6.74847 -23.5
      vertex -33.8622 -5.4376 -26.7
      vertex -35.3419 -6.74847 -26.7
    endloop
  endfacet
  facet normal -0.992709 0.120537 0
    outer loop
      vertex -32.0383 -1.96239 -26.7
      vertex -31.8 0 -23.5
      vertex -31.8 0 -26.7
    endloop
  endfacet
  facet normal -0.992709 0.120537 0
    outer loop
      vertex -31.8 0 -23.5
      vertex -32.0383 -1.96239 -26.7
      vertex -32.0383 -1.96239 -23.5
    endloop
  endfacet
  facet normal 0 0 -1
    outer loop
      vertex -37.5 0 -23.5
      vertex -31.8 0 -23.5
      vertex -32.0383 -1.96239 -23.5
    endloop
  endfacet
  facet normal 0 0 -1
    outer loop
      vertex -37.5 0 -23.5
      vertex -32.0383 -1.96239 -23.5
      vertex -32.7393 -3.81073 -23.5
    endloop
  endfacet
  facet normal 0 0 -1
    outer loop
      vertex -31.8 0 -23.5
      vertex -37.5 0 -23.5
      vertex -32.0383 1.96239 -23.5
    endloop
  endfacet
  facet normal 0 0 -1
    outer loop
      vertex -38.2322 -1.76777 -23.5
      vertex -32.7393 -3.81073 -23.5
      vertex -33.8622 -5.4376 -23.5
    endloop
  endfacet
  facet normal -0 0 -1
    outer loop
      vertex -32.0383 1.96239 -23.5
      vertex -37.5 0 -23.5
      vertex -32.7393 3.81073 -23.5
    endloop
  endfacet
  facet normal 0 0 -1
    outer loop
      vertex -38.2322 -1.76777 -23.5
      vertex -33.8622 -5.4376 -23.5
      vertex -35.3419 -6.74847 -23.5
    endloop
  endfacet
  facet normal 0 0 -1
    outer loop
      vertex -38.2322 1.76777 -23.5
      vertex -32.7393 3.81073 -23.5
      vertex -37.5 0 -23.5
    endloop
  endfacet
  facet normal 0 0 -1
    outer loop
      vertex -38.2322 -1.76777 -23.5
      vertex -35.3419 -6.74847 -23.5
      vertex -37.0922 -7.66713 -23.5
    endloop
  endfacet
  facet normal -0 0 -1
    outer loop
      vertex -32.7393 3.81073 -23.5
      vertex -38.2322 1.76777 -23.5
      vertex -33.8622 5.4376 -23.5
    endloop
  endfacet
  facet normal -0 0 -1
    outer loop
      vertex -33.8622 5.4376 -23.5
      vertex -38.2322 1.76777 -23.5
      vertex -35.3419 6.74847 -23.5
    endloop
  endfacet
  facet normal 0 0 -1
    outer loop
      vertex -32.7393 -3.81073 -23.5
      vertex -38.2322 -1.76777 -23.5
      vertex -37.5 0 -23.5
    endloop
  endfacet
  facet normal 0 0 -1
    outer loop
      vertex -40 -2.5 -23.5
      vertex -37.0922 -7.66713 -23.5
      vertex -39.0116 -8.14021 -23.5
    endloop
  endfacet
  facet normal 0 0 -1
    outer loop
      vertex -37.0922 -7.66713 -23.5
      vertex -40 -2.5 -23.5
      vertex -38.2322 -1.76777 -23.5
    endloop
  endfacet
  facet normal 0 0 -1
    outer loop
      vertex -40.9884 -8.14021 -23.5
      vertex -40 -2.5 -23.5
      vertex -39.0116 -8.14021 -23.5
    endloop
  endfacet
  facet normal 0 0 -1
    outer loop
      vertex -42.9078 -7.66713 -23.5
      vertex -40 -2.5 -23.5
      vertex -40.9884 -8.14021 -23.5
    endloop
  endfacet
  facet normal -0 0 -1
    outer loop
      vertex -40 -2.5 -23.5
      vertex -42.9078 -7.66713 -23.5
      vertex -41.7678 -1.76777 -23.5
    endloop
  endfacet
  facet normal 0 0 -1
    outer loop
      vertex -44.6581 -6.74847 -23.5
      vertex -41.7678 -1.76777 -23.5
      vertex -42.9078 -7.66713 -23.5
    endloop
  endfacet
  facet normal -0 0 -1
    outer loop
      vertex -35.3419 6.74847 -23.5
      vertex -38.2322 1.76777 -23.5
      vertex -37.0922 7.66713 -23.5
    endloop
  endfacet
  facet normal 0 0 -1
    outer loop
      vertex -40 2.5 -23.5
      vertex -37.0922 7.66713 -23.5
      vertex -38.2322 1.76777 -23.5
    endloop
  endfacet
  facet normal -0 0 -1
    outer loop
      vertex -37.0922 7.66713 -23.5
      vertex -40 2.5 -23.5
      vertex -39.0116 8.14021 -23.5
    endloop
  endfacet
  facet normal 0 0 -1
    outer loop
      vertex -40 2.5 -23.5
      vertex -40.9884 8.14021 -23.5
      vertex -39.0116 8.14021 -23.5
    endloop
  endfacet
  facet normal 0 0 -1
    outer loop
      vertex -42.9078 7.66713 -23.5
      vertex -40 2.5 -23.5
      vertex -41.7678 1.76777 -23.5
    endloop
  endfacet
  facet normal 0 0 -1
    outer loop
      vertex -47.2607 3.81073 -23.5
      vertex -41.7678 1.76777 -23.5
      vertex -42.5 0 -23.5
    endloop
  endfacet
  facet normal 0 0 -1
    outer loop
      vertex -40 2.5 -23.5
      vertex -42.9078 7.66713 -23.5
      vertex -40.9884 8.14021 -23.5
    endloop
  endfacet
  facet normal 0 0 -1
    outer loop
      vertex -46.1378 -5.4376 -23.5
      vertex -41.7678 -1.76777 -23.5
      vertex -44.6581 -6.74847 -23.5
    endloop
  endfacet
  facet normal 0 0 -1
    outer loop
      vertex -47.2607 -3.81073 -23.5
      vertex -41.7678 -1.76777 -23.5
      vertex -46.1378 -5.4376 -23.5
    endloop
  endfacet
  facet normal 0 0 -1
    outer loop
      vertex -41.7678 1.76777 -23.5
      vertex -44.6581 6.74847 -23.5
      vertex -42.9078 7.66713 -23.5
    endloop
  endfacet
  facet normal -0 0 -1
    outer loop
      vertex -41.7678 -1.76777 -23.5
      vertex -47.2607 -3.81073 -23.5
      vertex -42.5 0 -23.5
    endloop
  endfacet
  facet normal 0 0 -1
    outer loop
      vertex -41.7678 1.76777 -23.5
      vertex -46.1378 5.4376 -23.5
      vertex -44.6581 6.74847 -23.5
    endloop
  endfacet
  facet normal 0 0 -1
    outer loop
      vertex -47.9617 -1.96239 -23.5
      vertex -42.5 0 -23.5
      vertex -47.2607 -3.81073 -23.5
    endloop
  endfacet
  facet normal 0 0 -1
    outer loop
      vertex -41.7678 1.76777 -23.5
      vertex -47.2607 3.81073 -23.5
      vertex -46.1378 5.4376 -23.5
    endloop
  endfacet
  facet normal 0 0 -1
    outer loop
      vertex -48.2 0 -23.5
      vertex -42.5 0 -23.5
      vertex -47.9617 -1.96239 -23.5
    endloop
  endfacet
  facet normal 0 0 -1
    outer loop
      vertex -42.5 0 -23.5
      vertex -47.9617 1.96239 -23.5
      vertex -47.2607 3.81073 -23.5
    endloop
  endfacet
  facet normal 0 0 -1
    outer loop
      vertex -42.5 0 -23.5
      vertex -48.2 0 -23.5
      vertex -47.9617 1.96239 -23.5
    endloop
  endfacet
  facet normal 0.935016 -0.354605 0
    outer loop
      vertex -47.9617 1.96239 -23.5
      vertex -47.2607 3.81073 -26.7
      vertex -47.2607 3.81073 -23.5
    endloop
  endfacet
  facet normal 0.935016 -0.354605 0
    outer loop
      vertex -47.2607 3.81073 -26.7
      vertex -47.9617 1.96239 -23.5
      vertex -47.9617 1.96239 -26.7
    endloop
  endfacet
  facet normal 0 1 -0
    outer loop
      vertex -39.0116 -8.14021 -26.7
      vertex -40.9884 -8.14021 -23.5
      vertex -39.0116 -8.14021 -23.5
    endloop
  endfacet
  facet normal 0 1 0
    outer loop
      vertex -40.9884 -8.14021 -23.5
      vertex -39.0116 -8.14021 -26.7
      vertex -40.9884 -8.14021 -26.7
    endloop
  endfacet
  facet normal 0.992709 0.120537 0
    outer loop
      vertex -47.9617 -1.96239 -23.5
      vertex -48.2 0 -26.7
      vertex -48.2 0 -23.5
    endloop
  endfacet
  facet normal 0.992709 0.120537 0
    outer loop
      vertex -48.2 0 -26.7
      vertex -47.9617 -1.96239 -23.5
      vertex -47.9617 -1.96239 -26.7
    endloop
  endfacet
  facet normal -0.464723 0.885456 0
    outer loop
      vertex -35.3419 -6.74847 -26.7
      vertex -37.0922 -7.66713 -23.5
      vertex -35.3419 -6.74847 -23.5
    endloop
  endfacet
  facet normal -0.464723 0.885456 0
    outer loop
      vertex -37.0922 -7.66713 -23.5
      vertex -35.3419 -6.74847 -26.7
      vertex -37.0922 -7.66713 -26.7
    endloop
  endfacet
  facet normal 0.464723 0.885456 -0
    outer loop
      vertex -42.9078 -7.66713 -26.7
      vertex -44.6581 -6.74847 -23.5
      vertex -42.9078 -7.66713 -23.5
    endloop
  endfacet
  facet normal 0.464723 0.885456 0
    outer loop
      vertex -44.6581 -6.74847 -23.5
      vertex -42.9078 -7.66713 -26.7
      vertex -44.6581 -6.74847 -26.7
    endloop
  endfacet
  facet normal 0.935016 0.354605 0
    outer loop
      vertex -47.2607 -3.81073 -23.5
      vertex -47.9617 -1.96239 -26.7
      vertex -47.9617 -1.96239 -23.5
    endloop
  endfacet
  facet normal 0.935016 0.354605 0
    outer loop
      vertex -47.9617 -1.96239 -26.7
      vertex -47.2607 -3.81073 -23.5
      vertex -47.2607 -3.81073 -26.7
    endloop
  endfacet
  facet normal 0.663123 0.74851 -0
    outer loop
      vertex -44.6581 -6.74847 -26.7
      vertex -46.1378 -5.4376 -23.5
      vertex -44.6581 -6.74847 -23.5
    endloop
  endfacet
  facet normal 0.663123 0.74851 0
    outer loop
      vertex -46.1378 -5.4376 -23.5
      vertex -44.6581 -6.74847 -26.7
      vertex -46.1378 -5.4376 -26.7
    endloop
  endfacet
  facet normal -0.822983 0.568066 0
    outer loop
      vertex -33.8622 -5.4376 -26.7
      vertex -32.7393 -3.81073 -23.5
      vertex -32.7393 -3.81073 -26.7
    endloop
  endfacet
  facet normal -0.822983 0.568066 0
    outer loop
      vertex -32.7393 -3.81073 -23.5
      vertex -33.8622 -5.4376 -26.7
      vertex -33.8622 -5.4376 -23.5
    endloop
  endfacet
  facet normal 0.239316 0.970942 -0
    outer loop
      vertex -40.9884 -8.14021 -26.7
      vertex -42.9078 -7.66713 -23.5
      vertex -40.9884 -8.14021 -23.5
    endloop
  endfacet
  facet normal 0.239316 0.970942 0
    outer loop
      vertex -42.9078 -7.66713 -23.5
      vertex -40.9884 -8.14021 -26.7
      vertex -42.9078 -7.66713 -26.7
    endloop
  endfacet
endsolid OpenSCAD_Model
